<mxfile host="app.diagrams.net" modified="2020-10-19T12:16:12.705Z" agent="5.0 (Macintosh; Intel Mac OS X 10_15_7) AppleWebKit/605.1.15 (KHTML, like Gecko) Version/14.0 Safari/605.1.15" etag="uiJZEOpl6Qxd5FQeA3Um" version="13.8.0" type="github">
  <diagram id="PHl8NveqLkHUjs88F6AH" name="Page-1">
    <mxGraphModel dx="748" dy="412" grid="1" gridSize="10" guides="1" tooltips="1" connect="1" arrows="1" fold="1" page="1" pageScale="1" pageWidth="850" pageHeight="1100" math="0" shadow="0" extFonts="Permanent Marker^https://fonts.googleapis.com/css?family=Permanent+Marker">
      <root>
        <mxCell id="0" />
        <mxCell id="1" parent="0" />
        <mxCell id="pfXoi1vbgZaXwrGUKSU9-51" value="" style="rounded=0;whiteSpace=wrap;html=1;shadow=0;glass=0;dashed=1;fillColor=none;align=center;" vertex="1" parent="1">
          <mxGeometry x="280" y="90" width="440" height="310" as="geometry" />
        </mxCell>
        <mxCell id="pfXoi1vbgZaXwrGUKSU9-22" value="Browser" style="rounded=0;whiteSpace=wrap;html=1;shadow=1;fillColor=#dae8fc;strokeColor=#6c8ebf;" vertex="1" parent="1">
          <mxGeometry x="100" y="190" width="145" height="20" as="geometry" />
        </mxCell>
        <mxCell id="pfXoi1vbgZaXwrGUKSU9-42" value="" style="rounded=0;whiteSpace=wrap;html=1;shadow=1;align=center;" vertex="1" parent="1">
          <mxGeometry x="100" y="210" width="50" height="90" as="geometry" />
        </mxCell>
        <mxCell id="pfXoi1vbgZaXwrGUKSU9-9" value="nginx" style="rounded=0;whiteSpace=wrap;html=1;shadow=1;fillColor=#dae8fc;strokeColor=#6c8ebf;" vertex="1" parent="1">
          <mxGeometry x="560" y="140" width="140" height="20" as="geometry" />
        </mxCell>
        <mxCell id="pfXoi1vbgZaXwrGUKSU9-32" value="" style="rounded=0;whiteSpace=wrap;html=1;shadow=1;align=right;" vertex="1" parent="1">
          <mxGeometry x="560" y="160" width="50" height="40" as="geometry" />
        </mxCell>
        <mxCell id="pfXoi1vbgZaXwrGUKSU9-18" value="traefik" style="rounded=0;whiteSpace=wrap;html=1;shadow=1;fillColor=#dae8fc;strokeColor=#6c8ebf;" vertex="1" parent="1">
          <mxGeometry x="310" y="190" width="200" height="20" as="geometry" />
        </mxCell>
        <mxCell id="pfXoi1vbgZaXwrGUKSU9-30" value="" style="rounded=0;whiteSpace=wrap;html=1;shadow=1;align=left;" vertex="1" parent="1">
          <mxGeometry x="310" y="210" width="40" height="90" as="geometry" />
        </mxCell>
        <mxCell id="pfXoi1vbgZaXwrGUKSU9-7" value="" style="shape=image;html=1;verticalAlign=top;verticalLabelPosition=bottom;labelBackgroundColor=#ffffff;imageAspect=0;aspect=fixed;image=https://cdn4.iconfinder.com/data/icons/logos-and-brands/512/97_Docker_logo_logos-128.png;shadow=0;" vertex="1" parent="1">
          <mxGeometry x="290" y="90" width="70" height="70" as="geometry" />
        </mxCell>
        <mxCell id="pfXoi1vbgZaXwrGUKSU9-8" value="Statc VueJS files" style="rounded=0;whiteSpace=wrap;html=1;shadow=1;align=center;" vertex="1" parent="1">
          <mxGeometry x="610" y="160" width="90" height="40" as="geometry" />
        </mxCell>
        <mxCell id="pfXoi1vbgZaXwrGUKSU9-16" value="" style="html=1;aspect=fixed;strokeColor=none;shadow=0;align=center;verticalAlign=top;fillColor=#3B8DF1;shape=mxgraph.gcp2.files" vertex="1" parent="1">
          <mxGeometry x="569.53" y="165" width="30.93" height="30" as="geometry" />
        </mxCell>
        <mxCell id="pfXoi1vbgZaXwrGUKSU9-46" style="edgeStyle=orthogonalEdgeStyle;rounded=0;orthogonalLoop=1;jettySize=auto;html=1;entryX=0;entryY=0.25;entryDx=0;entryDy=0;" edge="1" parent="1" source="pfXoi1vbgZaXwrGUKSU9-19" target="pfXoi1vbgZaXwrGUKSU9-32">
          <mxGeometry relative="1" as="geometry" />
        </mxCell>
        <mxCell id="pfXoi1vbgZaXwrGUKSU9-47" style="edgeStyle=orthogonalEdgeStyle;rounded=0;orthogonalLoop=1;jettySize=auto;html=1;entryX=0;entryY=0.5;entryDx=0;entryDy=0;" edge="1" parent="1" source="pfXoi1vbgZaXwrGUKSU9-19" target="pfXoi1vbgZaXwrGUKSU9-31">
          <mxGeometry relative="1" as="geometry" />
        </mxCell>
        <mxCell id="pfXoi1vbgZaXwrGUKSU9-19" value="https://spegg.spilikin.dev&lt;br&gt;https://api.spegg.spilikiin.dev" style="rounded=0;whiteSpace=wrap;html=1;shadow=1;align=center;" vertex="1" parent="1">
          <mxGeometry x="350" y="210" width="160" height="90" as="geometry" />
        </mxCell>
        <mxCell id="pfXoi1vbgZaXwrGUKSU9-21" value="" style="shape=image;html=1;verticalAlign=top;verticalLabelPosition=bottom;labelBackgroundColor=#ffffff;imageAspect=0;aspect=fixed;image=https://cdn2.iconfinder.com/data/icons/whcompare-isometric-web-hosting-servers/50/ssl-certificate-128.png;shadow=1;align=right;" vertex="1" parent="1">
          <mxGeometry x="310" y="236" width="38" height="38" as="geometry" />
        </mxCell>
        <mxCell id="pfXoi1vbgZaXwrGUKSU9-48" style="edgeStyle=orthogonalEdgeStyle;rounded=0;orthogonalLoop=1;jettySize=auto;html=1;entryX=0;entryY=0.5;entryDx=0;entryDy=0;" edge="1" parent="1" source="pfXoi1vbgZaXwrGUKSU9-23" target="pfXoi1vbgZaXwrGUKSU9-21">
          <mxGeometry relative="1" as="geometry" />
        </mxCell>
        <mxCell id="pfXoi1vbgZaXwrGUKSU9-23" value="VueJS App" style="rounded=0;whiteSpace=wrap;html=1;shadow=1;align=center;" vertex="1" parent="1">
          <mxGeometry x="150" y="210" width="95" height="90" as="geometry" />
        </mxCell>
        <mxCell id="pfXoi1vbgZaXwrGUKSU9-14" value="" style="shape=image;verticalLabelPosition=bottom;labelBackgroundColor=#ffffff;verticalAlign=top;aspect=fixed;imageAspect=0;image=https://seeklogo.com/images/V/vuetify-logo-3BCF73C928-seeklogo.com.png;" vertex="1" parent="1">
          <mxGeometry x="107.47" y="235" width="35.06" height="40" as="geometry" />
        </mxCell>
        <mxCell id="pfXoi1vbgZaXwrGUKSU9-24" value="FastAPI" style="rounded=0;whiteSpace=wrap;html=1;shadow=1;fillColor=#dae8fc;strokeColor=#6c8ebf;" vertex="1" parent="1">
          <mxGeometry x="560" y="226" width="140" height="20" as="geometry" />
        </mxCell>
        <mxCell id="pfXoi1vbgZaXwrGUKSU9-31" value="" style="rounded=0;whiteSpace=wrap;html=1;shadow=1;align=left;" vertex="1" parent="1">
          <mxGeometry x="560" y="246" width="50" height="40" as="geometry" />
        </mxCell>
        <mxCell id="pfXoi1vbgZaXwrGUKSU9-28" value="" style="aspect=fixed;html=1;points=[];align=center;image;fontSize=12;image=img/lib/azure2/app_services/API_Management_Services.svg;shadow=1;" vertex="1" parent="1">
          <mxGeometry x="570.0000000000001" y="252" width="32.5" height="30" as="geometry" />
        </mxCell>
        <mxCell id="pfXoi1vbgZaXwrGUKSU9-49" style="edgeStyle=orthogonalEdgeStyle;rounded=0;orthogonalLoop=1;jettySize=auto;html=1;exitX=0.25;exitY=1;exitDx=0;exitDy=0;entryX=0.5;entryY=0;entryDx=0;entryDy=0;" edge="1" parent="1" source="pfXoi1vbgZaXwrGUKSU9-25" target="pfXoi1vbgZaXwrGUKSU9-33">
          <mxGeometry relative="1" as="geometry" />
        </mxCell>
        <mxCell id="pfXoi1vbgZaXwrGUKSU9-25" value="Spegg API" style="rounded=0;whiteSpace=wrap;html=1;shadow=1;align=center;" vertex="1" parent="1">
          <mxGeometry x="610" y="246" width="90" height="40" as="geometry" />
        </mxCell>
        <mxCell id="pfXoi1vbgZaXwrGUKSU9-33" value="MongoDB" style="rounded=0;whiteSpace=wrap;html=1;shadow=1;fillColor=#dae8fc;strokeColor=#6c8ebf;" vertex="1" parent="1">
          <mxGeometry x="560" y="320" width="140" height="20" as="geometry" />
        </mxCell>
        <mxCell id="pfXoi1vbgZaXwrGUKSU9-34" value="" style="rounded=0;whiteSpace=wrap;html=1;shadow=1;align=left;" vertex="1" parent="1">
          <mxGeometry x="560" y="340" width="50" height="40" as="geometry" />
        </mxCell>
        <mxCell id="pfXoi1vbgZaXwrGUKSU9-36" value="Data" style="rounded=0;whiteSpace=wrap;html=1;shadow=1;align=center;" vertex="1" parent="1">
          <mxGeometry x="610" y="340" width="90" height="40" as="geometry" />
        </mxCell>
        <mxCell id="pfXoi1vbgZaXwrGUKSU9-39" value="" style="shape=image;verticalLabelPosition=bottom;labelBackgroundColor=#ffffff;verticalAlign=top;aspect=fixed;imageAspect=0;image=data:image/png,iVBORw0KGgoAAAANSUhEUgAAAYUAAAIICAYAAACB5fLTAAAAAXNSR0IArs4c6QAAAERlWElmTU0AKgAAAAgAAYdpAAQAAAABAAAAGgAAAAAAA6ABAAMAAAABAAEAAKACAAQAAAABAAABhaADAAQAAAABAAACCAAAAACfLARCAABAAElEQVR4Aey995cjx5UueOGqqh3bkN1sOokiKTfUiPKaefNm3szOzDtvz9k9+8PuL/sX7S97zp637+3uSKORGXlPiaREUaRI0TfJbrb3zfbd1d3lfRWAxH7fDSSQQCFRmUDC36hKIJEZ5sYX5sa9cSMiVYITc4bASCBQkkv3zsrePQ/Ivsx+8VIlXCIp/GVGIv+WSUNgawTSW3sxH4bAsCDgybl7p+XS9FkR1Py0MgOyBHOGgCHgI2BMwUfCvocegaJ4cmP1ihy69oasy4rLb7EkJiwPfdFbBmMgYEwhBljmdbAR8MAU5r0ZOX73fbmyeJl6I4EGSUx/OtjlatQni4AxhWTxtNj6GAF2/qmsyFRxUg5feR/MoIgHnqRTpkDq42Iz0rqMgDGFLgNuyXUBAR39Qy1UlgH879XissytzUp6TOTtS3+W2xu3MLEAhmC2Fl0oFEtiUBAwpjAoJWV0xkLAQ0dPdRHnCwr4plsozMjs+h3Jpsfl0sYpef/WO5AU0jrhHCty82wIDDECxhSGuHBHNmsc/HO+QO2K8Fl06qFFSAkbpTUZy+QgQ3hy6MLbsuDN2aTCyFYUy3gjBIwpNELFng00Am7iuKRMgewgQ/tTuBuzV2U1vwyNUVpy4zk5ffekHL39IbmHOUPAECgjYEzBqsLQIcA+nhXb7+s5j+zJhtxYuQoJwlOLoxR8zMuc/PnCK7Isi0OHgWXIEGgVAWMKrSJn4foYAVgUcZIZOiSuWKYqaaZwTy5OnSpbGpVkLDWGCeeUSgqn7p3s47wYaYZAdxEwptBdvC21riGAqk2rIlxkCtdnrsrd1TuSoU0qGEYuncVnSuaLsyotFGme6vRO+r5rZFpChkCfIWBMoc8KxMhJAgFWa3CCVFHSmGQu4O/wnfdkTZbAI9Li4bWXK0rWy0gqJ/LW3dfl7MwJlzB4g9QwCPfYPg2BUUHAmMKolPQI5ZMDfloXCTp97nR3bfG8nLp5WEqQDqoOswpp7n6UloWVRfnj+ZdkPbVWfp1R6YL8oSI8VAPanSEw1AgYUxjq4h3NzJEhaGcOvVEB0sK711+RWW8SUkKVKUCOkFR5JTM1Sm9ce03OzbmN8jgRoe/pZzQhtFyPMALGFEa48Ic36+jKoSYqQUr4aOmCHLn1rhSgLqJUwMVsvDKZwGbZaAUzxWl57eLLkk9tOPEAgoZOVg8vSJYzQ6AhAsYUGsJiDwcZASqFIAbIAkxNX774K7mbn8TC5azkYI4KjrApaykwkHQmK29deUPOL55RlZN64gy1OUNgxBAwpjBiBT4S2UXHn4IC6YNrb8nRm38Wbwyjfw/PSuvKLIIYcF8kShAZGQfzuCsvnf4DVj3DP4UN4wlBqOx+RBAwpjAiBT2M2fRgJcT9jXQCgRJAqQBBQJ/IhcVT8tKFn8lqbl2y6PRTmFsopri22a1hSGPP7DSekXlw+2wBwxjLpeXta3+Wk7PHNM5SsYi3myWLYcTS8mQI+AgYU/CRsO+BQ4Bb2bECl1JgBhzVYyKZqqDp4l359ekfy82NqzA9xaAfE8dpeAgeuslftD5yjpto40L/P5efk5dOvihrqXUwErw3nlDGyL5GBQG/VYxKfi2fw4SA4wTIEc1Pna5nFZtWvHj+WTk2+5542wvlTp2de7Wqs5+n5REnm/nN3+k0Jp5x4+WwUd4NqJ3uHMY7apFMhzRMVcbysjUC1ZaytV/zYQj0FQLszLkYLaUSgug6g1cv/1Zev/Q7KY2BIYBXZDwcnoAZAy8NM1VONNNB1aRzCWQIuOcGeRkwlSziykCXNC8z8sLJX2Or7fmyfwZBCKqozBkCQ46AMYUhL+Chzp5uboeOvZCWjfSavD35R3nhws9ldWwenXxassUcVEdgCOjoyRA4pdzQoa/nvALfpouYdxgryTFICoduvYVwVWbgr2toGIc9NASGBAFjCkNSkKOYjZTkIQ1gNiBTlBMzh+VXJ74vs+kpTi1AWwRJAYzAS2MpG3t8SgFc4dzIgRvQXxH+KHVwhcJidkGeP/VbmV+dhzlrCDNpFJc9MwQGHAFjCgNegKNAPlU96NXxT8siT/L4LsHEVDbGtMP/cO5t+cnxf5VpuYO+H7MA3NMIK9ecZAALI5174I6pbkKasZFPZKE2Ynfv4ieS9AN1Emanczid7ezsaXnlwu+hNirHwYCcvsCfbqPBIOYMgSFDwJjCkBXoMGbHTfaiR2anjg4aXb7+rWfX5dD0m/LTI9+TmytXMFkskgNDSOs8A6u26/L9cb6qgnyAGB1nkuHY19PpL0oL/EMcRUggvzv7G7m8dKniyUvrjnm+bw1nH4bAMCFgTGGYSnNY88JeG6N9jOHBEKACQsfNg3F+d/UX8u3D/4/cKlzTsxHIDJzpqd/NtwcIrZOurl+WX5/EPEV6VSMrYsdVchEnfbQXv4U2BPoRAWMK/VgqRlMdAuzkOXrHGQgYzt9bvyk/OflNefbUj2QpOyPFXB79NN9zd1M3qVwXwaafVBlV1imUrZB8C6PKN1RUJUw6//n6q3Jo8m2NO13knAOcL364X/ZpCAwNAuUaPjT5sYwMJQIF7FIBSQEd8bXlj+RnR78rR+feEhnncrQcd7BAHw2GgG+1MlIV0NZA+OqjZj4zMiYL3rz86uhP5TN7PysHxx8uzyk4NVOzsPbOEBhEBExSGMRSGzWaVQLw5OTU+/Lt9/9PObrwupS2YfVBiWsQnFrJbV7B2QZOMidXrYuIKpsZl9N3T8ovTvwEB/WsaoqjVgSW39FBILnWMzqYWU47hgCH+oicXxj208aHw/9V2cAahNfku4f/b7m0ckpS47Q5BUPQbSqcjVGK6xAqaxHCqzWjp3PaH51SBhOBmihwOR/lT+ynhC2SIJUI9lJ6EWokSCi0WtIV1FRC+Qvi4MePvCYC+2EIDBYC4a1nsPJh1A4FAuhV0bGX9UDIESaUS4vyp2vPy48Pf0sm5TomlMckm5+A2SjMRznpC4clBtqxM2yNhZG+jfABhhDmuIUeDVdTYECLUCP97vhzsliYDXgnU8AFlZVexhkC2NjtICJgTGEQS21YaVa1DztXZBAd9VJxTlco//zEt2Qme1dKOUgHmGzm4TdZeKOlUaddiSf1gKA01kZkciU5deuEvHTpRaxngPiA9PnnZBqKE2WpodNEWfyGQAcRMKbQQXAt6pgIsE/FNhNUytwr3pafn/mBPH/hl7K+bVlS2O0U2xfhwloFqJN0cN/m3AEnmreebK42EUoh6+Nr8ssTv8DRnadUXcWV0rR64lwG78kozBkCg4xAtcYPci6M9qFAgMyA22BPrl+Xn536vrz80QuyPrEErVBOMgWojbCfEUflBaiJCuig2Uk3dngXNkdQDkCmQpNUXrz3GcQmJlFOg2skUjiPgSLKnbXb8r23viM3sGBOaSAjUGZgDKFxedjTQULAmMIgldaQ01rC5MDNjWvy7x9+U964/ieRiaKMgyHothXIu4fxeCGdwx5FeKYH5HRDXePmKcBCIKWMqVSQy2Xk8My78v33vydzG3N8pTzB+MKQV9ARyZ4xhREp6H7LJqUCt5MRKMNI3YPO/traefnR4e/I0XvvS2oHtrOgegeLxVK6qR1OWdNRO6d9WW0pJfCK4ziS969guPB4OGOggoB6Bz2qLoKWa1tR3rjyZ/nV8V/IcnFZSSlgcz6PYocfXfmbX/6jYKp2bwj0IwK2eK0fS2XYaaJqByN9ri2g5VABf9cWLsl3jv9XuTx9STITPAWtgNPQ4CAZOKPTcncO5uEct7uIq64pMwSmz24aTCZFRuP0R+V4677AEcgY/G7dZxAZb1w2tuXlV2d+Kju37ZT/5bP/K9bScd0Ene+fIgR+xiVT47APQ6A3CBhT6A3uo50qOkmOuGlHhJOT5cziMfnRh9+R6/OXBAuIsY21sgNg1L+CLPt5D5vzrY2tys+O/EC25Sbkf3zqf8b6ajcj7pgOFV6ciC4XtzGH0a73A5L7/m11AwKgkdkCAhx9Y9KYDOHc/HH54Qf/JhdXTkthfEOK2byae+rgvYWo4wbZNLEcI4JsCmMqmETNZKfl+4e+La9eexknPPCMB2eRRL2TLm4zZhADVfPaawSMKfS6BEYtfYyaqQEq4hCc03Mfyr8f/qZcWj4rGZ6RrHMHXMdMlQ3+qKtR5w+1kwOLMevFzfBaipbnLrjT3dLgDbNgDN899E15+/brUIaRMSD+8rnRyK2pkFrC2AL1AgFjCr1AfcTTpHroxOIR+d7Rb2DbCjCEcVRD9My6MTbOQ+AJaWnudwScihVVUr+BRpZSZif4SmVgqpq/Jd95k4zhDcmnN1T7ReamHKHstd9yYfQYAvUIGFOoR8R+J4wAe0No2MudIs8jOLN4VH74/rfkyuo5MAR0mRhI80hNqlt0IZh+lztTfIWvR2if1Nhz1YEkSReZVhp7IZH2bC4nN/PX5d/e+oZ8ePf9ssQASQTzJ7Su2uwcNpuf2xNDoHcIGFPoHfZDnbLf3aHbRD7xC//FUl4uzB+Rb578P+T6yhkZh96FB+OUMMr29Sv+1tfscMkWqKKpqpFqIQtfoKYhGVqvEjpsXuRM3DGpRJURf2I+gHvqcUlcfOfC6ClvkGx0625E4o15csP7SP6/t/4vNa2lZRUZIs+AdjCAOZBBaHB+EB9zhkD/IGBMoX/KYqgoYbfMDo9dnseOH+LA2QXOIXxD7kzflUzWmZq6uQOfJWiggf7IYPI5lc2C6V2Xb7z+3+To9Hua9ywYBxmd/nHTP15ke7q30kBn2YgfMgSMKQxZgfZPdjgKLuHMA1o9F+WjpdPy4yPfkQvrF7CxHJ5Rb8M+EX9kIBxID4Pz0Nd7OIShhAOALiKv3377X+Tc7AmswsYW3BBPOFeCkyA0305cYO7NGQL9g4Axhf4pi6GihONgJyF4cnvlkvz4w2/JhaVz2NgOEkJZfeNnmHb8vIIuXDUU9NX+fYb6owQdu/gMJCMe25key8Hk9px8463/LqcXjju5SYUE+qLVE3/UZTxBWiwqQ6AVBJJtEa1QYGGGEgG1ukHnf3vlI/nxse/Iiflj4o1jy+sC1ShgGOUBsjIEIDA8fSMXrGGuAnMhae7bNJaRM/On5FuUGBbOqimuK3ACYM1vKCv/gGfKauWAF2D/ku/J9Oqk/Byrfd+/e0i8CVQ1cIMUbfgDTsfMlBQCzwb5Vk9xA1PwuM83/qkuwnSCnLx7Qv717f9XLi1e1MV5VCXpHk6hgkLoi0GGx2gfAASMKQxAIfU3iZwV4IIz/qHfh6kNr+mNu/KTM9+S96bfEm+bJzmck5CDSqUI803OH/hzCJQYeA4yr544qrICdPv0t/xdtnjS+QJMrqsVFfJcguntkanD8i/v/jf5aPkS2Qb1a/h0C92UCDziY5oreTpF3xNELNERR6BXTXHEYR+m7Kv9EDKECWN0aFxzMF28K8+e/am8c+0NKUyg06PJKUfG0LWHmZcOEyK1eSHLwTEMmFzmltsfTh6HKukbcn35sjLPdIF7JXEHWJiuYpW36tGAVVon6Gtjsl+GQDcQMKbQDZSHPQ12+DrUxxGaqXn5/YVfy6tXXpLCduxlBDUKz0PQozMxceC2vx52QBrkj4sVcKVwRsR7t9/WLTEmsQJa1y9AkcQ/lViUsyI8JQZzhkAPEDCm0APQhylJPROBHR46sVVZkhcvPyt/uvg7KWTXsF1FVnIYCWc5GoaXItUpGBUHVTPdxEI7XahsgunT+qidTfGi0l/USZO0jIF5prET7Ju33pXvffBdmSzepIwFpkrGmdV7LuDDI3OGQE8QMKbQE9iHJ1GOcPm/nlmT12++Ii+cfVaWMgt4hDUKmEPI0gIH2eV2EKpfhwppFB2EKacawiQKJ5gLuYK8eull+eGH35OZjWkwS7Asci1FzmE6ijhZnnuPwGi20N7jPjQUpDAE5qTokXuH5LfHfymLpVms6EXvBoubYgYH5UBPzsvj3kbo8MgoRtFlsLUFpaQ1MAPyxSwnmXH/yrlX5dmjv5D54pwyTcgtYBlgCpS+zBkCPUBgNFtoD4Ae9CRpD0O7el1PwFEvGIFu9IaO/+zccfnFiR/KndJNMARwA4yGySi4iEsdJ051DyP8YgT+c32pkTl/uvWDuw1+Ut3juzBVT9AP/Tbyx1hKUBelOVrXKNlRsxPmDk0BOvzEEv0GdmAEGSbDuQVdwFeS9dyy/Pz8TwTHtsn/9vT/LrvlPsWomM4Dv/JJbgHSSHbgZ6IUWmSGABEwScHqQUQEsNMnfOpEMXsmdPJUB13F4rSfHv13ubp0UUo5LNpSBsBOl9s5OMdOzLc6coar/pvefStNpKuLJKjiiJPy+FN1EtLmORL5XF5+ffTn8tzpX8tqahVEqU+8Vc5V+SKp3aSX6ZkbPQSMKYxembeRY+UGOqnMuzvrt+QXR38gJ+ePircdkgP+dFEWXrqReBtJjUhQZRDAbWliQX5+7Efyx8svyhr+eFhpjStDr5y55oX9MASSRcCYQrJ4Dm1s1ODoojOanuLHfGlefnvx5/LBvbdwJgLmCiA5ZGFtxJGsbn/NFb0RXNASKIL3hL2wpwXFPRx+O7UX1Er4W0zPy4/e/3d558Zbksc241RqeSWsXTBOkHC5W3TNEDCm0AwdexdAwEkB7EFX0svyytXnYHr6e5yrjLkDMIOsWhpRpURzSqxNCMwDBCKx23oEgBX3TOVq70wmLVPebfneW9+UQ5PvgiGALUDkUpUdGVcPmVc92fZ7eBEwpjC8ZZtozko8LAYdVCGVl0N3XpcXzvwS1jNFyZawBkEniNl5QYVUlhDcFtGJkjCUkVHdxolvTtyngGM6V5Kb3lX510P/XS7cuQg+oMcCgW3gjzo5YwxDWQ/6KVPGFPqpNPqCFnQ81KroF/c0oikpDqlXGx1PTs4ek18d/6HMpKfRQVFt5Hop7bBIPy2LMMmsUWCk66uH+KrXjpSyX+UkL8nmFt741I6XKrHeOK7oSMNsF5QAuxJ3z8ul5Rq2wfjmkf8q15YuK/aFEg8yhSqJWrlekdobgCzVLiNgTKHLgPd7cm5ECmaAUaveV3qgtNxYviI/xWKrWxvXJYsTxjJqQuOrlZgzjGvLZjX93m+RTJ9GsoZeOgcZqShf4FgZnN52bAYn1b37bbm1clPPgaZZr26U12uCewmWpd1xBIwpdBziQUvA7cFDlkCH7kk/5wuz8ptTP5Yzyx/iHOIUtmvA1CiOGSvzAPVrH8khoFZJuZS8cfs1+QFOrJtbnwUTRllgtt+tGUkuLYvJEAgiYEwhiIbd60ifqqI0mAEvdkFrxVX5w9Xn5W10UBlsAc2JZbWM4c6e+Oum89VRzmonPOUo/uiHi8gaLXQLj7mbb6BWwrbjr330MlR2P5Wl0iLmHzIVaayblFhao4OAMYXRKevoOUU/T9079dcbpVV5d/JN+f35Z2UVm9zlvAlsVZFSq5iCjlq7yxSiZyKiTzIFVdtE9N9Fb1lIBjTzzec25Lmzv5Y/XHhB1mUDFJj+qIvFMHJJGVMYuSLfKsPkCM4PrYkuzp2XX53+kcx5U5LLbpci9EV8juXL7lLLo63itPetIcBNBakyElnIzslP3vuRvHH9dV3D0Fp8FsoQ2BoBYwpbYzRSPrzUBixg3OrkWxvX5GfHfyDXV6+oDT04gmMIXMUGx0NzyEH4q/7ie3NNEKgHrNFvVc7BVJUTz+mszMmMfP/It+Xk1AkUBQ4vYhgfeb1vkp69MgQiImBMISJQo+KtVDbLWfYWcFjO83Ji9ggYAucR8AEJQSsMTSe5JoEX/GsQSBf133ExizIPEDfOZv7dvATnFcjanBKJQlLHLgDktgEhWEhoi4tWsvRC5kv8U5jPuYa9pv717X+RCwsXgLfzUJl4pmdzhkCbCBhTaBPAYQueKY5JHjt0vnnrNXnr4qswjeRRkph4Zk9prrcIoNPPZXNyaumo/PC9f5eptXvKiMnGyJCVm/WWQkt9CBAwpjAEhdhuFvwROoelHvb8Pzd3Buanv5T57KxksRV2urwIrd10+jM8Ru8UFQbElbD9tox58u7NN6Ha+5EsFhZVklDDgAHJg5HZ3wgYU+jv8ukudegbJ/M35LkTv5TbazcwlwzFBNYi6CLaNnsdn/E4lU13s9UsNd8kNYppbTAP7d43o6nROz89Mu6x/ARMVQvy/LnfyEvYf2qttF5VRTUKbM8MgRgIGFOIAdYwe6VGfWNjXV688Fs5eu89yWzD5CYsX1IwiSxiYlk3ZRtmAAYlb2DcKteAU6/BRPinR34Ek+G3sCcVd1M1Zwi0j4AxhfYxHMwYMOLU4SW/YWHKfXXew2Hyf774MnY+xciziN07ywfluD2CuqFiYRqNLtLaCefnCSAQh62uTpDQQpw87xorGHCKW1amSnfkh+98Vy7MnQbjBmPAsZ81+aj8aCEhCzKSCBhTGMliR6a1H4TShPMFUA19tHhefvrRd2U+M4dJZbdqltZFnGOoWMyEYOWrNvjdlqs3X/J/h0QaNd2qP0ZERuD3/rjXGVrigNstLvXr09TKd0g+4j7mAaJc2YyigSFASq4uXpLvvvdvMrl2EyRi6xEw9PI+hi6rcRMw/yONgDGFES1+LjGgqSN16jOlu/L86V/IzbkrkqX9qbm+RsAxabI3rhHBhiPYCuPw5Pvy3PHfyHxhAZwCzI68T9eT+Iyvr7NkxPURAsYU+qgwukUKx8lFqhkw0syXNuTPl/8oh26/IekJPNBRdLcosXRaQcCDNMA5HmXqOJyHEkxxrCgvnvmdvHb5FS3TikDEtSRWpq3APLJhjCmMYNFzEIm+QrxMUU5NH5OXz70oG7lVqKO5uMpJD70206yqfMjCOuP8PKawCMO3QvKfdSbFZGKluo9qPTKHNAwB0l4Ohx2Ny2xmRn555Gfy4Z3D2JuKE89gFjjOk2pAc4ZAVASMKURFasj8ZdJpmcS5CM+e+YncKdyUFNRG7FzSKasS/V7UuroZvFIZA5gD50Ig90kKh/PcWr8hPzz8fbmKlc9kHqkSzs3WeZN+z5XR1y8IWA/QLyXRIToqWyAwfg66ywPvtdKyvHrxD3Jy5qjavFOVRIbQ9mRxh/Jh0VYR4GE7dKpGosQAiY9XGgzAGyuhTI/Js8d+IQv5GTyD0YCeicGCJ+soVwBGYM4QaICAMYUGoAzLIzIEzz/CkSthy0NKD0c7Hr73jrx26Y9QG61jJIkDc8AQuPspD9fxVTedwsGPv3cMSGdhFQ6eL53ihCyw8emKm++oqqdWDJYahSmCAfB5Gqq+NG644jyD/p7MgkygOF6UP156SV65+IJspNbK2SEzoBoJHnmrFz/MGQK1CBhTqMVjqH7ROiXDLa5Zymn2GmATmZLcW7stvzv3W5kqTEo6izkEziOwl9HZyaGCYLQygzLkmdlZlOdaZkN+cewFOX4X8wscGOAZzJLAC7j1ORigFjc/zBkCtQgYU6jFY8h+odGj9av1CTsFnA6/7M1j1fLzcn7mjKSwahkzkuhIoDZCzvWcBL0bMhhGJDvs4jH1rPw/g0HAzeJtzC/8AGdrX9b5BUxCwAfPeTZnCIQjYEwhHJvheIPOgWyBnX8xlZdj996XV6/+UXXQPFYzy8llqBw8+OMVVCj46pQ4ap5WwiQBdDDdZvQG/fmWRpx0b0dICsaZRF5ajYML13gmjwdVIDRMWHNSlA/vHZdfHfu1LBTmkEfICeAIXImCW6dCajUxCze0CBhTGNqiLauNmT92ACjpyfVb8vtTv5FpLFYrQY2Ugi6anQMlBHYouihqiPEY9qwV0wUqh5BNMHlueI7NDFPjKXnl0svy2pWXpIA1KXRUK7bDBDUS+xhaBIwpDG3RunbPU7voVmRZXr74olycOavbYVMqKGAk6WGGsoh7OmfqaFVCwRjAD5qgZsAIOG9eyKAcIQGOQX24lF6UZ48+Kxdmz2NqAdIg3nNJmzGGASzkLpBsPUAXQO5VEpxLoP0R+gk5On1Y/nT9edkYW5VMHtZG0C+neJoarJLSYBzcS4edCiWGxo7MJezaHAJdDiSQxtdm382fdFo9k4b6iJv+cfI16tWc4sZvKZV18tLznLWMsJkhC534Y+V6Jp2Ry6tX5SfHfygz61NlCZFsIaysG9NvT0cDAWMKQ1zOVAdBuwwro2n5I7ZAWFib1/kDjhZVpcQeEC74OcRwDH3WXDkym7QxIlt20gDNjVNQF75z7S35/fnnZb20hnpAScKYwtBXihYyaEyhBdAGKUhB8vL6tZfkxNQRXbWckZybQ9BOY5ByYrS2igC2zNMjVddzG/LsqV/L4VvvO0MkTjSZMwTqELBaUQfIUP2EruLy0kV59dIfZC23hEVaVJOgyKtDyp5nt9Oqoa0yyPSJyzA7GhLwbIwJ7I80Vbwrvzrxc7m3ehtZ7qOKMMwFMGB5G+7WMGCFkRS52tFirmA1vyovXHxWbq5yS+ys6s0L2BaBSiW1QEkqQYunzxFwaxM4b5TB5n/HsGHeC2efk1Vvtc/pNvJ6gYAxhV6g3tE0MVmM0S9Hh8evfShv3XxVSjjoPYf1CGQERVgb6Qpm3JsbDQTIDLg1RiGzjvULkBbHPXnh9HNy5O4H2EW1vIMqpyDKjgYK5kYXAWMKw1L2aMe0JuHF/XBur9yQX174sax5K8oEaIXELZR1mx/wg2DDj6LCieKnHspWwtTHob/DTIKaMLYoaQf9xLUKakhn3z5061HUrgBWVjSxmilOyc+P/xhSJE5rQ93x/L2xOKDAn7nRRcCYwpCUvTZ47SRTsp5alVc/ekk+WsaaBKiNqC5ya5VhfqoeB20kSKmm0TUkhdfxbDimQGs0Fn+KK56x59XpyZPyuzPPyYq3rOdJ6IpomCRjo4yOU2QJ9C8CVvr9WzYxKWNH7zrOswun5c/X/ijFrFvBGjMi8z4CCHCgUMjk5SWYqH4w+Q4WtelyNpUg/QWPIwCDZbEBAsYUGoAycI/IDyjxQ/RfKi7Jn86/LJP5W1iiPGgSwdbIB1U+qvfYOoj5CEGAez5N56ewN9LPZHL1li5g5Kp2cAZzI4yAMYWhKfwUNkjOy5E778nhG+/oltie7oo5NBm0jCSMAA0OMrmsnJk6KX84+4Ks40+3ULdeIWGkBys6K/7BKq+G1FJPzC0l7q3fkT+ce1bmU9NYx4wTt7gmwZwhEIIA5xA4f1DAec4vnXteTk5/qHthOUHBxIUQ2Ib+sfUaA1TEbKa0FHHiveqL9JaWI14pL2/ceFXOzJ7Gzpg8H4EbHYBTkGM0uBo8Um+9hKNGNdQFQpgejXFG1am1Gra6yKZzcnftjjx78hcyvXEP0gK1kQXUH2eJpJZqeBa0WBtVzEYh38YUBqiU2X9pH0bGgCaq8wjgDSzEK4uX5NVzL+vOp2mck0CfXKLmTz5v/sYrcyONAM/k5p/ukTWelQ+uvidvXHgVR3huoObgDyMHVrWqgapWvJHGbBQyb0xhEEtZSw0dPnRG3NR0DRtjv3jpt5gsvClprFjt+ZB/EDEdRZrR6bvdcXkAkyfr6XV58dTv5Dys11IlDCx0wMGhhWMGOiAZRZxGLM/GFAaywCHIq/4H/T92PD03f1oOTb4p3gRMUKES4QI15yo3/gP7NgQCCPiSZPnROPbKWr6E1c6/kWVYsWnt4aI23lGnpJJnILjdDiUCxhQGqlhd42TzVGkApbdYmpdXzryIffLvgUGAIaiSnD6qQr+fxSg6+7h+6D+KixJvlHha8ROWtjuOk4qS0XUeOnuOL3i2Bq9CNi9vX3pL3r35jhRwklsJTIEn9Ln6FK2sRxfN4ci5MYWBKkc2Sk4f4w8NmVLC8btH5MNb78lYdgwSAooTjVjPS0BjV/PCgcqfEdtNBHioEk/eo6MaKY19kTjpvFhckGdP/AqTz5NQR0J9pFZsZJ3GFBSsIf8wpjBIBawTf7QBQeNEW57Lz8gr5/8gC+nZMkPAiI9zCnTafjdLC+5lbz8da3MkBu97RZWTGHqVeg/TVfBZR5wVlg4i8CydTcm5e1gVf/5PWPmyhtfu5GfaIpkbfgSMKQxUGZc7fDRiD9sSvI9FaienjomHXVA9TBRSgtCN7yju45/PuuNIV6Orceo6HQLv9d9B32Eqnxo/+OH7Cz6Pc8/wZAqknvf96vx8JvnN+SdWkRLMUnFSN+oUN00kBtxNdx1rF16U87NnXDnhWT/j06/lNoh0GVMYoFLjYiNKCTQ2vbc+Ka9cxOE5qRWcx0sTVHOGQEIIkFlkUnIV53A8f+o5WSzMlTdStHqWEMJ9HY0xhb4unlridEtjzBsUsFDt3atvyvn5U4LTNVUfXOvTfhkCrSOgqxcgOhW25eVN1LMjN96HtIBt1/FnbvgRsFIeoDLmRDL/bq1el9c++qPkceZummsV8GeuHQSAXxnCXqhIoqiE2sld3LBUIJW4LxJUS/P4e/HU72V67W4Fo7jxmf/BQsCYwgCVFzcwK8iGvHPtdbm0fB4iPlejpqUI00FzhkBSCHAfLV5jBVgkjQk2WTwib11+AxKq1bOkMO7neIwp9HPp+LT585+YBLy9fF3evPQapAS3oyWlBE7YmmsXAQPRR1AnmzGvkClhG22YOK+NrchLp16UKyuXIULw381t0T8nqM0NFwLGFPqwPNXkVGV4bYOuIeL3BswD37r2mtxcuSbjqQm3RQGYQhrnL2NxQuMrJH9BlUWIF7U28f2F+eFz3w+/o7i4/kPjVPOlRvkO7+Abpc01H7THj+OC8bR7HyfdbvjlingaM2CrPMnCiIFbp1xcvCB/OP872fA2nBUSyprMgUyh5NGEqRuUWRrdQCBeS+gGRZYGGiR6qXIjC+47c3Pthrx9+R3J4xB2dGPacJ0JYbdMT61wRgEB8loPnIEqJNYzcAXJZz154/zrcmH+LFbNO7Ul32bAOHRxm/rlE3ODjoAxhX4sQTIEZQoYjZWZQx4HoLx75S25vHYF6xKqz53Hsqd+zIvRNIAIoD5h7QLrlh7Eg8OaUrmSTK7d1H2RVgrL5TyVmYMxhAEs43CSjSmEY9PbN+WG5tYSeXJt+SPsSfMGRmxrmENgg2XRkRk0ZwhB1UZvM9TZ1IP5bI5IIzpqF2bVxEU1SYOrUSzD8ky30oa4kAJj4L5HauHGPZDAGN6+8oYcu3tUF7pp3ST/QMbjYz4saA1fPowp9GGZaqevJUPOkMJWA3l56+obcn35sozzTDXwBDZYrlhmY+RozpwhkBwCZAhYHY8VzkVcVGfyjA5OPM8WpuXF08/LQn7eJecPXpJL3GLqMQLWm/S4ABol70Ze/jwBLI5wTsKhq+9IcSwPhoCVCmQCGKYp8zDRvRGE9qxdBDD77nZQLc8t6KQ+TVQz8sGtQ3Lk5mHUP/eOE87mhgcBYwp9WJbs9LmZBdthIZ2XQzffkJvYcoAWgkWahuh7JyHoiI4SQ0DFESlLZCzlq4QZxcqFNLX9139HirQznmLnLSIZjJduZDfEC8UJAw509GlUBFY3Gp6WdC0Mn2VkLj0jfzjzvMyvYyNG5QfOf2h09mKgEDCm0KfFxQZJne3U+l159/K7kk/lnYTQp/QaWaOAAOYX8DeWGpdTt49hEeWbOLEN219wIlrnuEYBg+HPozGFPixjNQUEQ/DQ4LjvzCWcv5zCXmQ6sdeH9BpJI4IApEd2/rnSuCxll+T3Z56Te6t3kHmKlSOCwQhk05hCHxayr9aYWb8jr19+VdYzK9ruOOHXMxdRPRVX1RPXf8/ybwkrAjwGVg0bsF7y7NwpefOj16QAKbaXVdOKJlkEjCkki2cisbFQeHrakckP5dL8OcEWR6rLdQvVEknCIjEEWkKAswec78pgFf1aalVePv+i3Fq+2VJcFqg/ETCm0Ffl4mRwSgTz+TnscfSmrKZXJIsJYY7OOAHcnmP8/tVeTJ0I7VNW/92JtGrjZIoj6urB3uI3Bya0essUuf1FVi7OXdS1CwVs1WhuOBAwptDLckQDrGwtRvUMT7/iEzS841NH5eTscUgM5AQ0Q6W00EJxcaFb+XKjPPfZnWyT9kZX49TJ9BpdjX03eRpQdfmquDDffO/hGiTHuaXGl1PtcAAR9WoIeKNCKD/jYjae1KaMoZSD6qggv7/6nEyuTurqe4/7INEiiZD61yCBa7SayUBP6wA6QddloqHxhp0//paLi/LuR2/LqizrPjNsXGxf7oM3rTq/lWpsrUZi4UYZgXJF5NCCg5RsNifXpq7J2xffBC8oH8Tj7FgdSlqvRxmwwct7C0PPwctkv1LM9uUmj1U+YDNTUi8snJPjd4/hAHXahXNFKUazeOVxO09zhkCfIEDGoA7SwyvnX5I7K5M6yvEXszmBwQYgfVJckckwphAZquQ9khWwXVF7wYZElUC+tC7v33hHpot3dZsBJ0KwYfnSxNZ0tGPR007YrSlr30dH6AO8g8Rvgxi0e99Oifhpc9vxS9ha+83Lb2JmoeCzCmDKemtu0BAwptDDEuMcgnO0/obMAEGAZyUcvvaeFLN5NC5KBhmVEqiopcRgzhDoFwS4Etxd2Fo7syF/uvCS3F65pWolnuns5j1Muu2X8opKhzGFqEh1xJ/r5EtsXOAPHkZZ3FNmcvm2HmxCVqHbXWjauBuwCdGOQGaR9iUC6VRGz1o4dAV7dMGwQQ0ooPq0cUxfFldToowpNIWnsy91awAqXtFy+De7fk/euf6mbGDUlcEkXgazz5QmuGCIaqSKDrezZG0Zu6828L/DAvjv+R3FxfUfHqfDS1VvZewq9yGBdG5H9XhkvlAnbXkhBOLe6qqkW09HO79VguQIvNEVksGQx+2Q4YeliJvFnkhr2RV59dIfZWr1HoYzNKGmyjNa2YeQZ497gIAxhR6A7ifJhkOnTRt62VN3j8Pu+4JuacF3KhmUG5VTJfkh7XtrBOJ1mI4pINZYfVijNOqeMb6kr4bMgOn2xumQBvWUlkiXpi/IB9cOaZb1hLbekdUbMIYgVWMKPSxE3S4AJUCJYc1bk3exPTbNUM0ZAoOGAM9eyBQysp5al1fPvyyzGzNghuxejCsMWlkaU+hxifni9YX5C3Ji6gTmlWnr3XmXnKqm87S2m0IlrxEjqviHOqnd+4hJDrw3LrtMl7BrI/5Pz56Uo7cO44nqRgc+b6OWgW70P6OGaeT8UidLObtQKsi719+WqY0pyWI7VFoimTMEBgkBqt+o4sSuSLLkLcmrF16WJSzCNDd4CBhT6GGZcXsFNqN7a3ex+d0HUshCSihmdHTaQ7IsaUMgNgJuby6e54zZsFxajk0elTN3T4NRBCdp/Hv/O3YyFqALCBhT6ALIoUmgbXAPmeP3jsntpSuSznDlMhtMgpICo/MvjZdxN4vff49vPxy/h91xfyh1fv75w79v9O1826dDgNWWhhFcsMaV+Yv5ZfkTVjmvFJe0HulktKqTXKXyVz0bfv2HgDGFHpYJ1UTLaDSHrr4tG94KBO+UnmRFkmh0VH/VDLoi0k1zVv+qMY8MC+/bGQbCaXj4D7yq3DflL2FpJPQ8qO9vJ0p2ZNXVt2wSPhMI3vvPgt/xUm2EX6+fxctBuG929VxVoyvzAVEql5HDN9+XC9Pn8Qb46slReluOhCHM9SMCxhR6WSrojC7BBPXi1BkVudNeVtcn9JIkS9sQaAUBZW4IyIFMmus9YDAxvT4tb154SzawdQudUzGBY8Az/8z1JwLGFHpYLnnZ0NHUTOGeWu/5C6F6SJIlbQi0jABnyChlpcEZSlidXxzz5L3rh+QGtm5xPICT0XC+eNRyShawkwgYU+gkulvEfWfjthy786EU0zjOkMJ3Wa/t1D1oWBxx1bmkVCZ10bb8kxRGoSmKnyARQf+bUQj6tPt+QCDF+QIwA+7kW8L6BJ1wxv3ttWvy/nXs5cV9vqhWIrEUJ8z1LQLGFHpUNBxLnb5zXK7OX5FcBrMJaEheGltaWIPpUYlYsu0goCojSghgBBR79awFLyMbaSzKPP+OzKxjMRscmQIHP1bPFY6+/DCm0JViIQvASAoDJH9Bz7q3Lh/cOiTrsoKWQqZALSuLg81Gx1MdpkzH+EiD37S88a8OJ9ti9EFq/fsWo2ocjH0Z3vAyFx8BXZ2v4PEDdZn1GVcaA55LMxf1fBBtA6hmulle/CQsRJcQMKbQFaAdQ2BS/tGPNxevyZnp09QaoSOiyI1PjLC0QXWja6JEUr7Isvy/7nSLPuOr/25cGL4KetN3Y+/hT4FxUC1V9Qg6qPbQPyBABsELHir3/rM2vqvpdfcuUNR+kSf+zTqsTEDrMZBUnLhuISfzsoDzxl+T5QLNU4mqbhTfXRAstcgIGFOIDFXrHjkyohxAkTmN1sLO5yjmEmaWZ7BFNuYStKG0Hr+FNAT6FQGe55zKluTU9RMqMWAWutIG+pXmUafLmEKHa4A/+uTQifdkDsuFZTly533xYLanzIKjK+pizRkCQ4YAeAC0oyWZyt/Tc8fXoTBlneefuf5EwJhCF8pF5wrYOPiHzv/S4kW5iEU9lBLomjGEoLqjXYkiGFfcbKsqBcyrXRriphvVfzBvsWlk2ZSZsnVVURGP6o8b5QFVnDf+HrbUvrl8nQ1B20LUGMxfdxEwptBhvMkIaIlBx3sPlhcf3j0sC/l5SNIGf4fht+h7jADl4xz28+IA6Bq2cjlyvbx7KkcZ5voSAeuVulEsHGFzDQIawnx+Vk7ePIoVn9XJ526QYGn4CFAWaHT57+07WQSANeo9Ec+n1+XQR++iDSyUk0Ab4Muy4x3n38z1FgFjCt3AHxPMHDGxZVyYOSvXZ65Iyu0g1lbqQZVJWxElGDgKTVH8BEmK6z8YtvaeHVTIpSXEMmL3tbXrhkVPUmlsnZvO+ShhR68CDuBh/U9hguE86v+F6XPaFmhfwXk2dXrfOTos5ugIGFOIjlXrPtnRQIWUx7kJx28ck6XCvDMJJJcwZwgMNQKs49wqD9/obRY2FuS9S+/ofkg0waZKVVmDDpzIK6xN9Lo6GFPoQgnoWAgj1BkcUXgKq5gLuQ22A3d1IX1LwhDoFQJuUSY6etR/NbjAfkgfYPfU2yu3VVrwrfJ0d1UQaSyhVyVVTdeYQhWLzt2RAaC2fzRzQa4tX5VSllW/P6u/ivR9bGWUZCH5aikuqKpojQiAucQQqIx9AHC6hAOkMiI3lq/JsZsfqtGFS4htAT618iWWtEXUIgLGFFoELk4wjpGKqYKcuAPVEf54ZKEHyyOqt80ZAsOMABdselQNobJza3j8kI3Uurx34RAs8NyEM9/R6fyC8eSeVwdjCt0oAoyAFmGCembyBKYW3NJ/toPKJFs3aKhPwx/CaSNko/Sveo/B32U/NWGD7wf83jqk5AuQs+V+TectNktNZ9Ny7t5pOTuF4zpZpRR33NCv+k+eDIsxOgLGFKJj1bpP1Pdr81fl+vJlrE3giMlJCb76gt9BpwwDYRp+w68fLhgm7r1/Ghu/axIKiyjgLxhW7+uioNdea8d8jOqxbZw9yHKaP50OrfRNmo1yP+X3V/5343jsaT0CPKJTt3aBSbaXLkgWFkgZ6JCmvDvy3pW3sRcYuAQcfOEi4jRTNddLBIwpdAF9is/Hb38oS96i4Gw19MFY5QkxWifeupC+JWEI9AUCZSlAu35sfXH61lmZXpvWAYRvh9TrwURf4NRjIowpdKEAVorLuoq5gJESzfCoZ1WrDB1Sd4EAS8IQ6DMEUpmUXFu4Dms8qpDYHsgbKDHXSs19RvZIkGNMoQvFzIN0rix+VN3rqCwoJ9kA4qlLOp9pbd4RVF1x6Y7rP1pOXWfk738ULYz5iotAsOwoGSzD6IL7IfFsEecoQ1iXFBfXpP1bCSSNaIP4jk4exoK1RehSc051BAmBoyKOkMwZAqOIQAbzapItQq16VO4s31QVkptTsC6p1/XBSqBTJVDu71eKKzh16kNNJUs77bLqiJZH/c8U3Ag6SYmmU3BbvIOFAMdD3Fb77sqknLh5nK0BBhQYKtUZXQxWroaDWmMKSZejP/gvG1FcW6Dq6JJkcSyhzwT0Gw3Ct89OmoS24lPlLjKB7+BfdxgD1QeNrsY5UoMheG/03TiEPW0FgaDaZ5PlmXbk7My3voJlq/shwdgin8rLO9ffkdXCinDPSC/lrJFaodPCJIOAMYVkcCzHUuYI/EJnxfOYL9w5L4tri/iNRsMOF87/1h9990EaG119R6gSNDiU9id+3aUqwPCVk6P7QZs4f++8XJu7gg3z2GysS+pumWxOzUpgMybtPQnU+5XSii7QKcIWm6Mtm8hsD1oLPTwIpEswzuaeF2AKM6tTcuTGB1j1j5MIySzM9RQBYwqJwg9pQEfZiBR1e2ZjWi7OnZM06z7+mulLgyJ6VFVNbZjWM9JWPAELo2b5a5269kO2lb/2k+9JDME8t3vfiQz4O6SiaWBr7by8f/19mS/MajvpRHoWZ3QEjClEx2prn9Bl+Hp4er4xe11ur9/QfeS3Dmw+DIHRQYAnELKtcHV/GmsWLs1clKtQIXEwZa63CBhT6BD+HjZ5uXDnnCyXlnzZoUMpWbSGwGAiwLk1StCcR1gsLMipGyd0Hs7lRkdY5Yxx5shctxAwppAY0m7KUys59KIrxUU5OX3YncOslhkYF0U2twtMTOjQKfh7a4KD6oKtfdf50AlApFf/rXTU+Y3xMwpNUfwEk4zrPxi2n+6D+ai939qiJ8zqxw25g/UmqftkkPPPLed+SLrKP+vJ0RtHlTkwBVXDapMKyt7JpG2xNEfAmEJzfFp4i8aH/5tLN+Q6zFEzqQx+skHGcWENOE4crfrtZdqt0mzhNiMQVo7tPt+cUqtPuAcY+32ubuac86Xpj+TK7OVydKBTrfXs1OZW8W01nDGFVpHbFM41Nn5ybHNp6qIsrS27EY9W/U0B7IEhMLIIeGlY5KHT5w6qOumMhjNbmJJjtz50lnqUVPG+omIi9zDXFQSMKSQJMzkC3EZpXc7eOyMFzCuYGarDxD4NgSACbq0ON8Jj58/+Py2FzIYcvXlElvJY1wPnFEdkGuWGFYzA7juGgDGFBKH1VAcqMrcxK2dnzoqHYzdddR78YU5Q150gZEMRVRCbVu6HAoSWMgG1ERoITyVMwQopm8nKR9MX5KO5i8oo+KEMgc3H+EJLCLcSyJhCK6iFhGGHwMp7a+GGTPJgcqKLWj/4LCEkw/bYEGgDAXb4lBg4t8D7LDaMXNiYk6O3D0PGdgvZdFjFtTDWitpAOl5QYwrx8Ar17QYz4Ai4OQ8pYR2rmVOo8KzUWrFDQw7DCw7j6q9Byxebgp+HuLT74ZL+jkvH4PhH01C03SenmuHAGIo4rvbojSOygIVs7h08prEpEhuYua4ggJO0zSWDgNvGIi95uTBzXo8ZzOCUNX80FCcNlTjKAernJNBuGruAuWt9mMYBGj9tlnbjECCopsFWCXR6482hqj42v+v0k/D8MR+kjJIdv5kpXr2kFskPratK0GQQfl1JZTNyBVZI13F87d77H3Blottf2Pi1W1XBkE4Qaex5J7MbM3Jj6rpbn1DpWBJMxKIyBIYYAQ5o5tfn5dytc2g9yi2QWzQsbqFqrisIGFNIDGY3oryxcE2mlu9KhhsewXGsac4QMAQiIgCJt5gpyokbJ2XNW1V+QMnN5hQi4peAN2MKCYDIKMgSyAAuTV+UFRw0yK2y9SFl44Cj+sK/Ao87duunFVSbdCwxRFxJr81EKvEE1GLNogz6byWvvsrNha0ts2bp2rtkEVBrI+yFRBXs5PIt14Z0eZt1VckiHR6bIR2OTew3hVJBLt29gF0fCwhb7lhCJwFiR28BDIGhRyCFg3dSOFhhav0e9g47W84vBlhYx2CuOwgY0gniPJ+flSvY2oKOe9Jw7X4alXx4HBkdL+p3/as/R9U+pcHv4SmHIc4JmksaBhobsirHb34ohVLeZbY/q9lQFoQxhQSL9ebSNZlcn0SlzsKawjGFDJjDULAFtSFEy8R3/V9cCIOqnmhhiWCjq3FoZQSEv8HVOASZuOt1nBqJaZnrJALBOlBzj/qlW19gYvns3dMyszbNKldWI3WSIovbR8CYgo9EAt+X712StfxKpQJzesyD3bU5Q8AQiIiANheqkDJyd+6uXIQ6Vhe4RQxu3tpHwJhC+xhqDHoeM86a9XAQOWUDN9YEU+BoNaE0LBpDYOgRKM/BpcEUVrw1OX77GPYQwzYYJrx1reht8VpCUNN87srSFbf6UlkClu7zyBBMmrVTn321hk9mlMYRDONb1fjh43zXxEPW1k5G4iTcJb/B/HUpyYFMpps4aX2lKg8VPY8zFk7fPSVLhUXZm903kNgNItEmKSRUarPLc3JnbRJGEmAG5Z6bulBnY51QIhaNITDkCOj8AfMIa6NStqRHdN6ewz5i5rqGgDGFlqB2CiFdUFOeoLwxd123/KXYq6ygzBBair5pIA7X66+mARJ6WZ+m/zuh6HscDXNjrvcIuJZVHkylsbp5Y14u3D0Pwvw3vadx2CkwphC7hFk5tceHxQpOhcJFd2EW6xOKeZig5vCWz+GLlkfYTzusw6FY7l8aSaQPvzOu/946sJ9Wa+oApNfInKesA96UeiBvzdKLQlMUP/Xpxw3jS3fNaK1Po59/B/Pf7n038+lBVPC7f2fFV5DTkyeqpqndJGZE0zKm0EbBOy1RSfKwpb4+c7WNmCyoIWAIVBFwAy+aa6QxJ3f13hWZW5+uvra7jiJgTCE2vByhw+kXPsAZlgoLOJMZm+ClDU4Hjn0aAq0hwGZVuSBlp6FCmlycxNnNV1qL0ELFRsB6sdiQUXnk/tT0FHMI91buyZ31W5UJ5haiHOggQfXEQGekD4gPYtnOfR9kpWUSnAKJi9h0zCXzxXk5OXmqEh9xMdc5BIwptIxttWLemrshC978yDKFliG0gIZAKAKYi9MmVpKN7IacmcSZ5wXuKca5umrbCw1uL1pGwJhCS9BVt/ItlopyBfMJG6WNskqpUYQVgRgvg/eN/A7Ts2Beg/fDlEfLS0cQIEfgpDONNbBr6rXZq3Jn+Y4yBN8ooCPpWqTYpMdcbAR0e1/2cai362AGlxcvY5EaRzZ82MCFPXdDoQYBwh8FR0nBxhGWBFpRJbKg/8rDiDdh6YYHBxbVpOGtio1/ylZ92KqP+jf99zuIR/9RN9gU6b5hzAKZAupNDt3U1PpdOTt3Wh657xG8QMXSf3yg0lCNay45BExSaAXL8uI0TjKvFFfkDibCePSmOUPAEEgOATem0Jk7WS+sy9lbp6VYcwIbmYExhOQQdzEZU4iNqKuqfmWcW5/Rk9ayKRO6YkNpAQyBiAjQsu/C7XO65UVZPOCYzFwHEDCm0AKoTqh1Ae8sTcqitwA5IZwpUNXgX2HJ+e+7pZbox/Si0BTFTz3GccME/Yfd16dhvzuLAOcVbixex2ls2PJCmYE/OOtsuqMYuzGFVku9rMS/PX9TNtLrbj7B6mmraFo4Q6A5AmAEeojV9GX1x4FZcHDWPLC9jYOAMYU4aMEv+31WRjpul02mUEoV3QsTZxUdB4ZCZB+GQDIIoMltpDb0iE62O22HNKJwTTGZNCwWRSBc52EANUSA017KFMAA1mVNri1c0+MDPTCG0eQJaJWBjAfbaOetQgIJbyqtICXuJZ80tNJCNJt9b4rQHvQQAW13GcwrzJ6XNRh3bEvv0HrnpIVm9aCHRA9o0iYptFFwi/lFmVq5C6aAbX5bMC9tI+k+C6rdLWiq/+4zMhtQ6FPcf5QaRUEE1AYJ+yDdnr0ld5fv6ULRzg86ghSMzr0xhRbK2h+XTC9NycLavMZglhAtANmPQUxkSLZUfK7b5jcHXZTR51cW5Mr0R45GxOm3xWSJHu3YsXbI3AAAQABJREFUjCnELn/UxPKCsMml2zhDYUl3cqSVSrdd1TImWspV/+3RGoynvZii0d15Xxhzlrm6P1/U+TRHIwXimcifti9seVFak3N3z+p8HhHsRbsb9pIzptBSCbvxCSeZi2meyWw66ZZgtECGQGQEnKTg4WTD81OYV8D5zXQmoUcGMLJHYwqRoap6pC6ziMPEb8xer1gemRhbxcfuDIHEEUADU2EBGwdcn7uGubwppzsaDlE1cbjaidCYQkz0tA5ieLJcXMRCmpuS0eM3efqaUzzwff0VM4kWvZMtNbq2ji5I79a+G/loLd1GMfXumTtBr5o+e6ERbh7BStHOfRXQ9u7UbCytar7Z1Wm5NHOxHB/rnrkkERjhWt8GjGgkizhYZ2ZtSi2P2BezarLeNrriphTU2UcPSwo2X43o2fQsoPWNnl7Zp3YY8TIeJX9J+anPT+N4oZpQ6zFmxnc+lv7v0fpOZB5Ah0fJ4aYWSKjj6966XLp7oRwxy8lckggYU4iJplZBfCxtLMnyxjL6Ydd5UONpzhAwBDqFANiUMm7YIGFe4ebUDShwsWjUml3igBtTaBHS6eUZN9mlldJqZoswWrAkEWhHzVMfNkm6koqrLMiVcCTbveW7slrEoMxc4gjYiubYkDoGMIU1CuuldVUfpaB75nkKvqkqo/RNHOujp/rCd/1uOVFLa3zG1254Hyf7joaAm9WK5nfQfLHVcJ2CoMVxl/qZpWlZXF+QXdvvG7Ss9D29Jim0VEQlmV2ZlQK2tqB+3h2uU+3sW4rSAhkChkA4AmhnlbaG0dRCfkHm0AbNJY+AMYW4mKLvpznq1OodKUC3ycGL6jpT7vzYeNFx9N3oihdLS77Jw/yrpQjaCRTIs08Dv0fVBTFo536Y8SNHKE8gZEoZWU4ty52FO8Oc457lzdRHLUBfgNrozuJtZQa6PR5VRzwRKm7HphW9AQGs/zEji62qCaqxgrN1mrajKUwFVk9x/LSridRABl1xI1f13eht+8+U/nIipKDT6dVTPMxqn/q8tvqblkd+2aShrl2TVawTutlqdBauCQImKTQBp+Er9BgrxTVZWOXBOoAPoqx2ZRi9mDMEDIEOIoCGxrZGJspNKG/P38J2F7BAMpcoAsYUWoBzdm1OFjbmJYtdG93ohbXVmEILUA5WENcj+T1Tct+DhUKPqHUtzYGOuWYcf3t7/gaMPdx2Fz0iaiiTNfVRC8U6tTqjZ8Wmsb+7B7HWyQpkCvWrYluIvC5IUDXDV1FVOnXRRP4ZTK/TaUUlKgpNQT+MN4plV32YregxNc9WCHX+vdstNQU5ISWzG9OyUliWbTmcrWAuMQRMUmgByrnVOV1VmYJenuMXdWHzA/57+zYEDIE2EcDwq7yAjQOWhcJ8Zev6NiO24AEETFIIgBH1lgtnCukCRFiOVzgxmcI6BcoM5moRqLDM2sd9iVRgfKRk86MF44G6nNpPto9kXKpUlCKYAuOjlLewvoTzFXCeya5k4rdYHALGFFqoCdNLd9UsNZUak4zndmQpZQowQKp2LLWqicbNIuinX1Q1YXDEpxWdqo7qXIwBmQqNuhvzL40x93XStfmEX938zoVxtFIVyN9h8dTGYL8aI6CGeY1fxXpKFW0JrY5TzG6xaEHyxYLMLc/Fisc8b41AtRfb2q/5AAI8NHw1vyIlDyMWqIwoznJM6RawGUSGgCHQCQRUeAODpjkqGTuHYvy+M29rFZLG25hCTETzksdmeIt62hqXJqgLjIhjRmfe+wSBKBPTfULq6JKBQlKmgPZGxS0HZreXbo0uHh3KuamPYgLLE5/mVmfVCoi20pQcWEX7ydWqepKhLKp6q5I2BnJxFS+VsCA5anrJ5K6aHmkwBpEUqgnHAymBqqMSBmYQ0XWrsen1aW2DbIvmkkHAkIyJ4wb2cl9YW9BOS41RqT6ipGDWRzGRNO+GQFwE0OLYzsqSAgcOs2vTmFsAkzCXGAImKWwBJWcMdMSrlVFkrbgiq96irmb29ZyMotmo2PnbnFBNmKCnmhebw8V7EhZZNcHqXW0+wp5HTz8s7egxmM94CAwr4mVegApatQhLZ1IytTyFNrkq45lxtFRaAGKcy4o7rEDEqw4t+TamEAZbuUcs6cQBahhqJevZ4sacrKWWJA1Lo1KGkwpO2KpU2gbx8V0jRwHDd2662v3i+oewSh1fxdI4cWfvXU3dv6vVnQQIBEGNY6qErL3RoCEhQh7XRtD4V9T8R/XXOJXBfMr61Aa0fZ1pfyditkd2/Ky/tEhaLuCwq/yy7B7bA5ZQlAwbmzbGvs5OXxNn6qNmxVNpYeUOEb/nFudlowBxVetexYMbnTSLy94ZAoZAAghUBypsfYVCQRahzvUdx1NDyxn9THb425jCFgCTHShLKPf/i6uL0GEWsVgtwAe2GqGxovrXFunZa0PAEIiIAOYU8oUNubd4TwM4c1XcBsZqEWMybwEETH0UAKPmVjt99uRw+PLnFpbXl3UJDSe53DPVYjp/IZ81qqEhqLFB1QyzHNdSKBg+btgQiO3xCCLAvr+ABWzTS44ppLDDADmCm1vgW+MOrVQLkxSaouYvknH1izpLLqv31ZZlluFiqPnRNFJ7aQgYAokgQLNUzCtsLLnYdPKOQzD8WXtsGWGTFEKhY63yRxu4x38BTOHeMkYlNGTH78o4hF4TdS7+zVEGE938tuGTIG0Vghv67IOHAQKDdHeFsvoESUuAngY0NH/bIIA9Sh4BFML8Ore6QPmxCPHbyqU9mI0phOGHUQf7fjoVR72Mbno3uz6DSqezDPouuFNq9am+auOjWbWu77yaJxNXdRW0iArG7GPBZ1FVPrHVRDrSc6nW5DLkRDalxXlv85Op+ZcfFcqA9IQAMsyWPj4CA/GNIrq3cse1Ue6ppUUGCULLDT/MxUbA1EcRINMOEfWLFW2jtKEhWN2sykUAb2C81LChMtVWwv1efBz0LECly3PTq85aZxWL+HfGFCJhhkqGf1a8YqkLqyf9QWujfipIb1R/wTBb3YfFGfZ8q/g6+r4viepoji3yzQisFdbQLoNMYbMfexIdAWMKYVj5g0Ttd9yPdex7tF5cDyiPwgK391wnyjACCqp+GsUY1V+jsGHPwuIMex4WT1eeo2w4objVpCLVWP7VFboska4hQFUm2+QGTFOp7WNzpfObr/tln3EQMKbQBC12hMFatlpYldWNlY4zhSYk2StDwBAIIJBKp2RtY1XW8mtl+w9jCwF4Wro1phACG6uWX718L6x4KzhLIepEqx/Ovpsh4CNdj3azMB161wckdChnQxst2+Ly2oosYf0QXdC4YWgz3eGMmfVRCMAUP7kpdgmVzj9AZx0i6hrVR1kTTkNgi/Y4YNET7IeTs95qRsbmsuOTygWCanwECQxEW+Mn8Nxuu4uAqo/yOOME+x9Rsk9Dh1SC9GDl03o5GFPYCju/duG74PGMWP9kna0C2vtwBEJ62vAAHX/DYg5eHU/QEkgGAVSlYsmTvJdH+bnG2n+1K5msdisWUx/FQHqjuKHSQ4wg5tUQMAQ6iAAZAHca2IAEr87xhQ6mOPxRm6TQpIwr9at8s7LBfY/CTd+CVjC6tqFR3L0cxgTTrmSuEZEdeNZG2pFw7QDJFmWyCASrQGIxI1IvjXPTMdmszq/XTMy/Tyyx0YjImEKTcvbFUTflnNJFMgXYQ/N82MYuWO0b+1GLpnLgwM5KjaNL+Gkw7cbUJZxgILr20t4a10BSdtuvCAS5e0I0sl4V8MeNKs0lg4Cpj5riyM6o2iEtrM6LB/1llVk0DWwvDQFDoMMIUCIvlorCtklHJtHtAU+Hs9j16E1SaAp5sHp5slJcRoWrMommQSO+bBRbMNWa5Gpe1CUQjKiZv0qwME/ViKp3tZJ42PNK1FvdBPY4qvEaRlKNp8Y/6k0Rw8yGg/7C/DROYXSfBsu7PRTaKOAmCXuYVZhfrx6008SrvYqAgDGFJiBRItAGgQ8eA5jHX2332CRwhFdhfSMT9ZtPUO3CKP3n9dEH/UWTZBrHFP+YTtLUOK56Gqu/4/qvhrS7HiAQSe3TO6UD29FqcU2B0bqo7dXhZDUtfn3pXUnGp7XnIUqesoie02EEGAKGQAABNEuvyFVF5pJAwCSFiChSROUpT+Y6iEBwRBpqvpV8+tqZDFmPMmTZaVrolJI9rCFy8wkmGzQFK8JLYwoRQKIXTmblC1AfjVJri4hNUt6C0PaiaQ/VHEOQwSZVQP0aDypO0aOkwIWlOFPBXFsImPooCnzooYoYieTz2InRuEIUxMyPIdA1BMjMNzBgK3gmyScBukkKTVHk2NWNWddL67KKrbOjzqkGB2phmpAofmrI06F0ozE0XjR6XBO47ofGVX4WJWzQf11UyaUdkkhgRj7ERw1FUbLDAEFLJP1diYUxMKUoqVUCtXwTf6ARJYdR/LRMcl8FJFNY9ZaxL9majKfHy7Sx7EYHgyQLxJhCKJpsqr7Nc0q4aG0D1keB/ik0pHsR7FDCKmcUP/XJRImrPszm38GOKKr1UFjKm2Nv/iQ07cBGeTXtuRQQaGsgw4+kiKowAT9CJhRMrHme2nobOxmfxrZSHYrA3KySaKx5q3quguTwQ+HxQTWs4hZ0oLXFDTqC/jG0Hyq98wgWoWV5uBBwAwyojzY2pFAoDlfmepQbkxQiAk9zVK2AGHjEVvtETCOKtyhpR/ETJa0aP/7Aiw/rB1/N3tVE0p0fSk4AhKiMPKo/5iIo7XQnV5ZKMwQKhQLMUo0pNMMo6jtjClGRgj+P6xTY4wTVHJt6yBgRtuQ1Sg8cxU/cxKvdYL26qfqG/KKeY8RNpzf+Oe9DphCZ+iDEvSHZUgUCLDF/zs6KJJkqYeqjiDiywlWkhYhhzJshYAgYAoOGgEkKEUtMhQOYQYfvkBoxooC3GoEj8LzZiCfySDYQ31a3AU1LZdS1VZhI74MZiUt4MKwTzyIl2bInlRK4rYmfsP8dRnjY85YpsIAtIsCS4EaVJVxVZ+VTxSLenTGFMLxoZhTotTOpjGRxBR6FhYz8vKbaBnpmHgHayMpJ/ft9VeRUonjsSKSBDja+WqnaOccPGyXH9X5UdUQ9RKAcnJ+aUqoPZr/7AIE0a5oyBVeP+alH6FrRtVQ6pj6KAhtqWSqVlkwmg8rXmQ40ChnmxxAwBAyBTiNgkkJEhNNpMIUsmEJFvRAxILwFGUkcC5foKQywzyCPjTmy06Dl8P5k4wAjYaS3ioAN1FpFrmE4YwoNYdn8kFJCLldZGbPZgz3ZhEAUBhhksjF5Qjk9n6u0Ftonur3Qfiz23QsEWAMymbRw4GaufQQMxYgYsoPLZshD/U4oYkDzZggYAh1EwLXHTDar6t0OJjQyUZuk0LSoq+NHTDPLWHpskx17O6qhdtlLJW2QWaW0NkMVP3gcZeQeFlNwRL+ZMQZTr+YqhtW/I7rR7DrfBKN3PmN9bo1BOXewIuCfoxuJMittph2LUPPcEgLYIBV7Ho1JLu13Z1ZwLQFZDuSj2E4cwxlWOwN38hpvs9hUZQx/NVZvbeY8tA/saUcUkrg+dh1+tdt3AAT1+f67kFi2QCwsVNjzLaKL9ZpbmDCA36F0I81YBJrnhgigjaIhjeNvLEX1Lh3KUIvPytDhEe/T1EcR8YLGUrIYidicVkTAhsKbdSqDUIyUgDPpjKSDo5NBILxPaTRJYcuCcSNHLlpLV8TTLQO15WFrdUdb0TcN3Km0o8Qb5ifsedOM2Mu+RiBYpu0SyoFamhPNMAYx1z4CJimEYkhm4F/OUy7LOQVCxufmDAFDoB8Q4DxQLjcmWUw2m2sfAWMKTTGsZQoTE9sgLXCtgjlDwBDoGwQgKuTAELjjgDXO9kvFWGsIhtXjdcACdG+LlOwa29W2NUpQbI5mDRRCYPBxMy7VDbV4zURLIMHAbdvABfPr32u+XSLNIPC915DjPyx/+1Hxu5m/umAj9zNYf/sh885eTCSHSWYsLy2ThBKkFYcVZEtFZExhS9h8dVFK7gNT4HYXOLF5y1Dd9xAm9AU3CesQVYEeOWyuL+x5exSx1ZcTD5py8XHMTaq43xTNj+qjCWStPVItdGcQYDmnPJlIbSurdjuTzCjFGtaTjBIGW+SVZqluyLE9u024MZ65fkJAOUD7BGk0rpzbj8xi6B4CmOUDJ59A2zTRIBnUTVIIwdF1D26cqMuZcDueHcdqhUyonBAUrRNTDYXQV/84StpR/NTH287vbqe3Fa1amgFVl19GfJ7S5yh1fg8ZbwiWw1YYDdp7FlUGf9sntgdI1xIN/LbbOAiYpBCGlvYg7qXeovYpU4DuknpMc8OHQGdUXMOHU7/liHMJOycw3xd0Q8bYg1nr9L0xhS0QrnT/uNmW2ybjYxM1u55uEdxeGwKGQAcRoGDHLWi2j+9wqWiDNY7QDuTGFMLQY73SCqYf6ot6yx05VL6ACiIsuD1PEgGWQaMryTQsrkFFgLsNbGe7hAsaCgxqfnpNt80pNC0BzCaglum4A33StgyYQmZXV9VH9frg2JvMNc3foLysMubqna/6T2ZUGIy32rPUPO06WPVl33UCBiDBklofiRuskV781lPX9H4AMtCHJBpTCCsU9gcqLaAbLvc7Y6kx2ZbeZjMKYZh16nlNvx/sqGtetJw6Ga0WdzLRtUyHBWwBAUjtXMlM1S5dhSG0EJUFcQiY+iisJqCDcKaoeqO+qLvkWgUbwYWBZs8Nge4iQE3uBOf6chMuYWXswYFDd+kZhtRMUmhSio4pwANrHtgnmcKBXfulNJlMpQsyF988sgk5XX9VS1+0PNeGaX3oXRtPzKyjvIIWYlGxbVU1F6Q1JqXmvV0EUC23gylM+EzBr6atV712KRr48CYpNClCfy1wCnpK/rHT2Lt9b5MQ9mpQEdA+xDqSgSs+tsvx7IRsG3PqI/w01yYCJik0AbDaR/AgD0/nFnaN71TmwLrndNF4jj+faTSJLpFXjep8lc5EkgiJJCyVRhSFRNHy47C0W47QAg4LAqh+E2AK45lxZ6CGqtKttjgsENbnw5hCPSKB3zxDwU0ys9t3QtW+7Q/IRGZCimAS7A5LaUgQHphCGsyhVN0CI6hSiKq+CCTd8LZZ9xvsNmvTbhhVzbxINPqCKdTH2Ywy57eWpmZx1ceN32F2hjGjqY85jKbqc3Yv5voaAagKd4/fB8UuujKK9pWNUp1k39e09ylxpj5qUjDBPodsgW7vzv2yPb1dRyOUFcL6qybRtveKZDS62ot1QEMHS2hAs2Bkt4UAj8d9YNcD4AXgBuXq4LfVtiIe4cDGFCIUPkeO/uhxF5bTbxculCmPIckV1DbaoIwApXkxBBJFgO3y/h33gx84Fa6qjvy1RYmmNDqRWU8WoaypXvFVLDuyO+WBiQPicYgCxuBXRe7U2A3nMyifSXUjTabRq3Sb5S9pmljGpi5qhnj/vUtjK/udPOcEroQttFFR+4/IAaPImELMAtue2i77tz8oRa8AhkD4KCnAYrVLTCEmueY9BgI+448RxLz2EAFKBRmchHjf+G6lojIDBL5grKH1gjGmEBM76i737bwfjICSgV/1+N0dSSEmuebdEBgyBCpdvza/XDYnD9y33+VRm6O1w3YL3KyPWkDwwd0PSraUhQqpCLZQgrzQPlMIqoPCRqxa3X0+BLr96u9/N8xKmATDPWMSco1iakpTzHSjYLMpykC+a+gLIQxGZJwa0suPKxCF/8i+4yJQA37cwLX+M1QNQUWUh3RAiz+aG43BEnD/tgfVI1VJftuxyeZa7OL8MqYQB62y3/2wdsh6Y1LI5PEElRO9R4J1vylFwT4teB8eKMxXghSHJRFOVIff1BHkZ1Uf+z9qSVCGgEd1IWs92a/YCCSJZ7WVIVYaf0Ba3445vl05pz5yR+VaIcYupLoApj6qAyTKzz0Te2QshcUycKmSm1fQSa4ogc2PIWAItIQA2bm/+oC7o3oeLI+gyh0fd22xpUgt0CYEjClsgmTrB3sn9srusd0YrEBIpUiLb09XzjQOm7SVTONUGj+NknYUP41jD3+qDZijufIV9Ok/43c/OdLjqx/6iS6jxSFAdZ7uH8B2B6ZAA8D7t+2DCmnMIEoQAWMKLYBJhrB7fK+qjNKq26RgW2whJgtiCBgCURHg/B0lBTY8bjtDJr5nbA/m9Kwbi4phFH+GZhSUgn5QIXnYzv07H4D4ynELKyiYAm2kzRkChkCHEABDID/gmiFKmJAUOIdw8D43ydyhREcyWptobqHYc5hPeHTPx6R4E0qjMVgglXKIpftQBtUv3VR7BNMlfGqd2wKObQfh7HDZcQxZdbQ9IbuO7jzqqBEHr8pIiVHGiyZ6gp3wGYSgE/EnGCc7+HiO0jhLhiVExkDj8LQ8svfReNGY7y0R6H5PtiVJfe4BDY8jlEf3PIbJ5jEppjZAMHSaMFGluZy5biMQ1hPG63VYcowpGBtjCP7uds7iphcvx3Fj771/x+hRIlowaZyCOC4P7nqo94QNGQWVQdGQ5atz2Sm3vEf2PCw7sztUdZSGOOvWKnQuWYvZEBh1BJyE4FgDVbd7MK93Pw69MpcsAsYUYuOJkQr+H9xxQO4f24cFbKykHE/ySsZRPeNfycQ4PLH4uKgKi7rlOC6Aq4YPhPXVb8M+2g5keeBuXWmztVHNV5QHtu+Xndg221yyCBhTiIun9hol2Qurh4M7HlSzuCQZQlxyzH8yCBgzSAbHzsYCWQGcgXNYNAF/+L5HZaK8Xqiz6Y5W7MYUYpe3G8VPpLYJVUi6ViF2HBbAEDAE4iOgCiSMwWAADpPUh/Y+gu1mqgdbxY/PQjRCwCaaG6HS7BnNTzFKScP24bH7H5f0xTQmm1FZdZJ5ax4bVFv4KotmyQXfxVSWaNDgCLg27WDM1ftaP8HQVT+b7xr746rTqgvc15grVZ87bXE1xNZ3SLcaPOAdzxuTFPBTe+vnu2F0tV71V03WGrzvp0fxLX1AfUuBtsh1QN0XFedqjGQILG60PrS1MYEF4N6HY5dzNT67C0PAmEIYMk2e+33aw7sfw9Gc47Iuq5IlU9AtL5oETOBVaFsN6QS703k1Sry22Qd/BX2HPY8GVTCmaCHCfAXpCPNjz9tDoAbjmh8R40Vx00qsiL8dcp88tPtgxIDmLQ4CWw9t48Q2In79Ee2DOx+UPdk9Olh1eyCNCACWTUOgBwiQjygvwS4Cu3Cwzp7tbHutcJceED9ASRpTiFtYFBPKosI+7IH04MRBN9kMKYEqCP+KG227/v10fTVIu/ENevh4eDjVhDL7gIpj0DFIiv4glu3ct0uPk3rBBLCjzAM4K50bU5pLHgFjCi1h6tQWO1I75fG9nwBTIDNoKSIL1E8IJKeN6qdcDRUtVJ/yLIX9uw7INqwT8qX2ocpkjzNjTKGFAvD7/wy2tnjywFMQHFA1uzCf0AKpFsQQGBIEyLEd106BMzy87xGYemSdZD4kOeyXbNhEcwslQTGWljUcpTyx9wnZld4pq6Vl3ZmlheiaBqlXBzWyWNKm4nMqxOaaTtNomYHGHlqYmQ7S2Ii+TQkFxKqakV4ISZvClx/ETpfIBHBySiMXWSrNd9jgEO99Msjnw+AIgy+MVn3eUqCmMYa/DGAcyHK4//o3gfD1r3rxW+sJMkLLoxy2t/jEA58ol6Vrh72gaVjTNEmhxZL1z094bOej8vD4QZilFlqMKZlg7MgaXeGxN/LNZ11w7KX8qwvJ1SYRyLdPA7/p8M0GwatLSDDVjriarAV/RL3vCFWtR0oexT3HOBDYMXafPLHvcY3MJppbxzQspDGFMGRCn7N2lseYuL0Py+wf34d5hQJbmzlDwBDoBAK07aCgVSqW5AFsMXMAex5pi7NmlzjcxhRahDTF8SQqaTqVkU89+BnJFrh9tjlDwBDoCALgCjxYh5ZHn7j/E7IDZzPz9DVKD+aSRcDmFFrCk5KCE2WpQ39y3ydlZ+Y+WS7No5I6xUMUfXcUPy2RFyFQlLSj+ImQVGQv3U6vShg7HH/I6cqv+q67d1U6uptuv6dGXCgpZDDR8+T9T2CKeUzLrGZOqt8zMSD0GZttqaDQgeBfuw98P3LfY7JvF05i40jGnCFgCCSOAOcOuDPqeBaTzPs/obokGntUeHniKY5uhMYUWij78oyChvRQK3eP75GP7fk4mAJkW3AKmszxhmaqtfv/tJCYBWkRAY78G13h0bGDYdn6oUIttBiF7ynOd3jS9mZLBMAUMOjaPbHbnbZG3LUQtgxoHmIiYEwhJmCOIaiMgJApNZHLpnLyF3s/pwyBIxqdbwBjyHgZ/OLxgVqDY6bUuncVtSluj+wwCnjTlrR8EX//rzGqLDOUJYLwDGCd0Cwzd8ckyCjqLvqNfbkyCZZP/X1j+uwpEWD5HNz1sOzfdr+WEcusrK01gBJEwJhCC2Cyg/Adzdsz+P3U/k/KWHoCTAJsoNwZ6Zdu4eX7tu/eIIDeJAJj9n3x21x/IcC5unQxLY9jfcJEZluVuGpTrD6zu7YQMKbQKnzlypiGighKInls30Py4LaHxcNwpkjpQJlDUdIYdlq9bRXk7oYbXcmquzi3kholvTFI3k888ATaU1olhODgrJU4LUxjBIwpNMYl9Ck7+NpOHr/Q8d8/vk8+tfczajLHwKquSHOFLA8BqQ3B9/UuqEaofxf8HdVfMEw376v0dTNVqnICqpkWkvbDUyfk3zf7biEJC9IGAiyLnZntanmk7YnlhHZlUl0boIYENaYQAkz442pV9HXPHLbkcCzgMwefwWgmC3USYMVLj/pp/DI3IAhYD9O3BcVNJ/ff94A8uucRLGBzZDp1nxVa0oVmTKEVRAP10FVMRpKSz+7/jOzO4SBxVGDqQMk+PFtc0wrCFmZEEeD4n3J2xYJPpWy0I8+Txw88rjsIcK7OucqN/8C+E0DAmEJsEKEKQodPx0//4u9Hdj0mT973SSmUNlCtOZ+Q0UnnoBqC/pJ22oxAiC+5RPkO0hCFvih+gnG6ex+d2u8a+oBU5S+Yh+rTzdFu9aQZICFhnW0AO6NqR0M6zXUXAbfRpGMKLAnO2bF+5EpZefrBZySTGtNGV/GnLbC7NA57asYU2izhSr+BGrwjs1M+89DT2O89DWbgR9ydBW3aDyLJqN8+dZ39JgiNrmqqQXqrT2vzEXwe/b55uvXxOEux+qf2u9sIUEJQKQHF5xtrFKEvug8nrX12P9oW1bF8VybMSRTdpnK40zOmkGD5smP59MFPy/bULlRaqo48LMtPMAGLyhAYcgTUskjt+dBwIJEX07TlK8pD9z0kH9v78Qo3YPsi2zeXPALGFJLEFKqHJ/c9IQ9tf0RNU0tkCt0RFEJz0ZraJzS6gX8RigdHn1QdlVWDA5/Rgc0A5uJQBrrWB1ID1bApTCxz08kd4ztdrlBWZAjKFqoTDAOb434j3JhCUiWiwxaYpo7tl09jIVuqgIoNk1TTSycFcOfjMaGu8xhHSUH3AEDPxG1iePTmeGlcPnfwL8EE3LYxOp9ANZNKFFFiND9xEDCmEAetJn7ZoVCkzaECP33wM5KD7rP7G1w0IdBeGQIDggAHUpxc1oWfYAp7sQboqf2fwhM+x9ofvfBLubiOxgYkZ4NBpjGFhMqpLCio+oETYgdyB6QIdQTHM3Enw0JVHHW0RvHnrGo46qq96qKq/tQWyVZZdyEfcV0U+uLGGdV/3LSZO4bxtz6Pmo75SxYBqlx5qdURTjP0cKjOx/c8Lgd3P6I1UFVGvKOaz/0nS4DFxlVW5pJCwFdHP7zzMfnM/r8QgQqpiN6Yf71y7OwaXeH0NPLNZ+YMgW4g4CQADmL0iFsMTj710KdkO1Yz01Fl5A5M1Z/20QEEjCkkCqqr0OPYsOuLH/uSbPO2oWJjptn61ERRtsiGFwFK1TxIR81RYXk0jp0CPg11bFxpe3gR6nzOjCkkjTGGOJwg+9yDfykHoULidr+s4L6Lq9bww3XrOwp9QT+8T8oF4w3GGfY86Kfde2bDT6fduCx8YwR8fJt9U6hOc5EPzk4oYRXz/okD8uQDT+F34zjtafIIGFNIElOMcvy6+8j2R+Xp/Z+VVJ4JmKiQJMwW1/AioKpWnYtDHtF2PnvwL+TBHQfRhPyWNbx575ecGVNIqiTKdVYtjsADJnC2wpc+/nnZBmskDEGTSsXiMQSGGgFK1ZxoprpoTMblC5/4ooxnJvTZUGe8jzJnTCGpwuBIBqtsVPepugiMcg5AhbTjITWg41E8pbIkwe20aZfUDVaBJNGg3EWG5V9JZTvJeBRCwlh3haURVEOE+al9XhtxFQ10RCwbVVtQquNF140Scin16tPPbbNvHdQ4/Zob4LR43yyNyjuUA41Oi1KQB8YPyOceekaTpxrWXHcQMKaQMM5qW83RDv4OQoX06QOfLa9uZheDml3uofnVDce21OjqRtr9mUYjNPgMBaKF4ndP/Un90FPFSWZchWJBPnXg0/LwrkdRf7ktgHVV3Sp7QzoxpMudCoe5HI9jNDVOFdIjX4UYnEN/w03gYVCH3R6dftTvnBIjwCIyBAYeAXZINO3OQu36BahfJzLj2PLCGaIOfOYGJAPoocwlhwCqNE1QOTbngBNfn9v/eTm47aDcXL+GB1i2j1GQRzUTXkap6mQuQRe2uCroL8xPMJ5u39fSl0zqUfNZSRtlwmKpd1pUwJn+osZZH0e//a7kud8I24KeFAZVHiyP9o49IJ9/6C/LvrFkrVHBbRGXvW4NAZMUWsOtYShqH9z+d6zErhY/uP2AfOHBL0pqg+fK4hn+3YpN3Nb29w3jtIddQgBloeq9LiVnyTRGwEML8ryiPLH3CfnYnk+op0y3dK2NSRq5p8YUEixyN4mLCPVcZnxDasils/L1R/9KdqR3CIQEXKj0uGiL7ZbsJ0iARWUIDDgCujsq2DNVR9uyuzQ3HDyxbZnrDgLGFBLEmZ085AHEWNvhP33gaXlq7yd1H5cSRGOOSemNmiGK+b0Q9Tn4anQF4fBpU/pIbIir8Rfip/axw0hBKOPF+xp6dNzOsTv+grQGn9dGuvUvZqEmMhexWh6h59Ec4oOdkFKoD7aOtl0fQTTKlcKvHC1/B+Nsdt8u7a2Gd7Z3nEJ2ilTFvFw2O7O75ZmPP6NlAABcEnxnrisIGFNIEGaCqUyhUn8dvHuwy+NXH/u6pItsAG73R9zqfYLJx4qKTa3RFSuSlj2HdVPVCIO0VZ/W0hx8Hv2+cdpO7VcbS6UYax/br0QQKHf2Fasi/AZngOYIG+A9KY/veaLMD1AyeO4GW4kkbJFsgYAxhS0ASuI1z2r+8mNflf3bHsBeSBuo41inQKbA4ZE5Q2AEEeBBOjS14JnYvNgWuE9YupiRLz36Fbkvtwc6I5+BjyBAPcyyMYUugE/Ny8fve1z+EvshFYtF3RaYyfZSTxpf5dMFoNpIIpgfVXfFjQtlpHFEDFefXlK/IyY/8N7Q/SMPNNHmp5tn43zC3ol98lePQ6rmvJyqLMuMwQZQXStzYwpdgJpSwUR6m/z1Y38tO1M7peB2yTMzuy5gHyeJlphJnATMbw0Cbg6OUgI7fiiI8in59IOfkqe4AR71eWAElCbMdRcBYwodxpsKIj1TATfPHPiifHz3E1jAD8UpOIVtB9xh8C36vkVA1UacVUPH76EX8vAxVhiXrzyJLedzPDuBzylLswXxpzEHB0TnP40pdB7jcgoluR/bAH/141+XLPZBYqXnSGlwHGltdA1ODppRWpUS2An5V7MQ9q4dBJzJhYoDrsMH5NwN9QuPYk0PS4DqokFqHu2A0WdhjSl0uEBYr7OUCiAip8EMvvbI12V/7n5U+sAoKAYNQd11WLAofsLChj9HTjhaa3SFB2r4Ji592j+wj6i/ArET3+AVeFVz2yhthvOg0uM7ZND9cfJTf+KDN3UXyzWpq4bAkfkBtsDqBBTTkBJSODvh6Ueflo/t/IQioGWJ9qIDJx/okcGmtxk1ptAF/NmZsfrz/xO7npDPHfy8lHD2LP/M9QcCygCUFJaJlUvHS0U5QtqpVjGBsD21Tb721FdlAt/qyOQdS+g4KZZALQLGFGrx6OAvisol2ZHZKX/zxN/J9tLOmrTcKLXmkf3oIgKGfxfB1qTY9WAfMM4bQEr42K7HMFj6nJtg7jYpll4NAsYUauDo0A+Kvxj1UP+Rxl4Xnz/wefns/X8hpQLYRHWIqvfB3x2ipqVoSZd/NYvA95NkPsLiDHvejL6wd35c7r1JCmE4JfVcVymgTlGKznBtwse+gnU8OGHNXM8RMKbQhSJw+7kQarQA6K73YU7h7z7xt9gWeAwdLRb6Q1Q2ZwiMEgK6KSTURhAUZCf2OPryE1+DAcaYm6gZJSD6MK/GFDpcKBxz6rgTH2pzjaFRBgtzvopVm4/s/hh5hGMM0LHSRFX9dpgmRu/P3Sk7YqL+1YW0+zIJBd5HxVHYrbLoLR5+nrv7XZlnwznMT+3/tDyFA3VUWnMvegvJiKduTKHDFYBNzd8PyVlS4An+D2x/BLun/ifJeduwmt8Do4AvMgVIDco8Ok0Xejy2P3dRjHdXh5PdFL2vtuF3T12ZKbNwiL9eLLyhdsgg8t2bC5PMKPIxb0L+7pP/ILtzu0EGUDepuec1zphCF4qg2rfgrlzps6mc/PXH/kYe2v6wrnDmAjdJlVVMOmzvAmGWRBUB5UksqWppVV/aXdII6F5HmGB+ePej8qXHvwzjU6zdMYaQNMwtxWdMoSXYkgn05K7H5SuPfEXShYzky6s30zpi7vGoOZnsDVQsPZdUBgqt9on10jh9EFsFf+3Jr8vBXZhgRpXn+eZOj9l+/BZD6wgYU2gdu7ZDbktNyH984j/K/Zn9ZXUFVTjRx6pRVC9R/LSdkQGNIIhNiZM75rqGAMc+D4zvl79+6j/KeAoTzOb6BgFjCj0sCi5e+9S+T8szD30Jx3VStUtNNopER0w9JGzUkkYHZZJClwsdE8x/+cgz8skHPmkTzF2GfqvkjClshVAH33upouzM7MJE29/KbnzzwHIeJ2JMoYOgW9RdRYDyl5up4R0lYbeSf1tqh/zNp/8W9R/H1Ooz2KZSTDbXcwSMKfS0CMgASvJFLGb7woEvSwGbp3rYYJ5tw1dtdIq82EYnAUJ82lxjDryouw36q3sV8tOf6K39rqEVHUvlD94q76pP9S4kgYaPqcoocatOdcGOKXjfMGiMh0Fi++g+Rg6ieg2WO4/bhHEd5gu4oh+/8J338vKZPZ+Trxz8Kt+qxZFKyJoAy95cLxHwW0IvaRjZtLVBIPe7s3vlHz/1j7I3tQfNpiglnjzSYccU4lwdJqccPTuERlc19SDN1ae1eQk+j3rPc5qd6yT2jfLWy2dR0WnHH6VfOJhc4ygdHfTkvHH5D5/+D7Jv+74KA2dbiD6b1g49FnYrBIwpbIVQB9/zxCk2GB7P+czBZ+SL+z8vXh5sgcs8zRkCQ4AAJQQPpqYe1iuz39/A74e3PSxfffLLsMAuSwlmitpXJW1MocfFoadOobHsxpm0//DUP8quNBbx9JCmoOjfbTJ6nTbzSxpG1QXxb+c+iJ8v9PK4ZS5MyxSy8ldP/JU8dt9jQW9230cIGFPoaWE4kVmtjiBef+HhL8vn938BwykQxVfmuobAKDODzoLMlfpgtqkCtosXOTj+oPzD0/8gY+nxziZrsbeMgDGFlqFrPyC3tXDWGJhHwAh1Tw5zC5/8H2RneodaIrWfgsVgCPQaAaxVpvSVyotXKMlfPflV+eQ+nMFso55eF0xo+sYUQqHpwguI0+6EqWoxfOXg1+TpA09LobShE85pj0d30tFyw901+gyK+43e81kUP0yj4RUaKSOGWNPoCguT1PMQWuPo34i/h+0WuHiNFjB6KbMmww7JV6vPk8p3IJ5gmbZ7H4g2sVs9YZBSL8rqfixW+/vP/LNsoxlqnEJKjBqLKAoC1d4oim/z0xEEtCPCpBvd7rE98rdP/b1s99hw1JYPTx03cD7UW8c+mEajq3mC8UM0j697bznH6TpT5tv9NUagUR7jPOtenvoqJUBUyGCyGSrRL+PMhE8d+Czw5oaDZkzRV+UUIMaYQgCMXt6yY6Jjt/SVh74uXz7wNUjcKeyJBIkBQ3c+dz56SaWlbQjEQ4D1toC/veP75J//4j/LjuxOVY3yubn+RMCYQp+Ui6qROGzF//6xA/JfPvM/ye7UPmwvXF6qBY5A5tCPLqi2CKMvip+wsKHPiU35qvfjP+d3M1d539xbsyhaehekr537lhLvYiBVE22U5BlsafF5mF3rpndUm3Llvrm+RMBKpg+LhYfwfOHBL8lXHv6apNdQRBC3adLnTnDrQ4IHmKQteMYA56w/SPcA8B6BAcVn/1l25Ny55GkwhS7z4P4AY0CoMKbQhwXF0dUuHFH4z5/9L7qTJE35nLzQh8QaSYZAEwTyxbx8/pEvyBcf+TKkOlRk7HlhqqMmgPXBK2MKfVAI9SSocQuaztP3Py1/9/G/F8HB5l6GArdviVQfIrnfNYY1ZVakDAmSSs27wO/kUq/GFFSpVJ+2e+dYK6UDVRtxrgYHG5WwRiRKekE/7d63m5N+C0/VJme+3CQ9ccVEMiSCPd4+rEv4J9k9vocjG61R/KRPc/2JgDGFviwXNBk0su2Z7fJPn/oneQSns5UK3bHWoFjvX0zRv/xn9d99CV9TopgD3/Eee/JgAGuuPQQ4YFArOs4VYBkz9zkqYcuWLz38JfnSx76ESgVzXzJgv3YFi6G9pC10wggYU0gY0CSi43yyjrnQ0p7c/Un5T0/8vYxhewAPVhzmkkOAk/sc8Xs8LNhcWwjQzJRbWnAxJnf65e/7oAL9z1/6Z9k3sU9HGmQc6io3bSVpgTuEgDGFDgHbVrTkChxRodMax+lsf//EP8ljOx6HGolPKZr7rav1VILqj9ZjGbyQvpWXzxAIpS5eo06p7ILYBO/99/a9GQEdxLB2Qm3EQ+xKG2l55lHMJTz6Raxozuggx0kJCNt+9d1MgD1JDAFjColBmVxEtM3gZJzrplLycZzl/P+39+XPcRxZeq+r+u7GfZEEeB/gBZCgxFOiKFIURYniLUoUJVHS6NbszPoP8m/+xeMIjx12xNq/bIRj7LW9dnjDHsc6JjbCnvXu+oidnfGOHB6RQB/+vpddQDfYDXQT3UBX1UuguqqrsrIyv6x+L9+RL984dENypSJm3kIsryNg3XtqfEvi4kaWNoYA1xZXhkBDMlzlRv0xuT73lgykhnR8Q3WoYxxUIeHIGMPGAO/h3cYUegju8xfNoZaTChhcO11NyaU9V+TotuM6EciYwvMja3f2BgGS+goYQpkUZTEhZxHjiAEeNVQIzgcTMGl3oMSwLDX0pjpW6gYQMKawAfB6d6sbUznXPScvTOXG5caxmzLijYMx4AeI0/zBOa+Pxppspcpj+dmNVWr4tpynbYnH4eGGlyvHDDtO9bRuy6SmRnKC89zX/VHnrRxXawSEcTNoFjV1ljaCAAEkhpBkJ1Lj8sbcdSliXoISf73Ei9yYgr37Zp/9hYAxhf7qj1pt0C36Q8Ku9mPz4Lnx4uRpOb/jIoLJ4CKMefxp6Ugs8j8ybSlbu2qrwYVdQOqD/cqVlWs855gCj0CuqPLQG5R08aSl50SgTM6MdzT5VOTCgfNydGoOEPNcfZ+5wkl03IDnOR9mt/UUAWMKPYV344Xrj4e/K6SiX5Qbh9+S3dldCH+xhN9cRTysLRxYH1wu+2wXgWWJRS2j7d5l+ZoiAJtBBYuMT6a3y9Xjb0g2mdVs8Ri0NEUktCeNKYSo6/gDOzR6GOs5v64rWJWVWUBHq95KIWpIn1SVDJcyAkMxWNogAoDQW/Ll4sFX5fAEI6GaQ8QGEd2y240pbBn0z/dgdVHd/5ocHj6u4YirvlMjPV9p7d+1PKreAgLaq2cHrr0sPzhuHxHLuYwABycIjb1v6IBcP/GW5Ly8UN1pmC4jFKoDYwoh6q6a+hsznKflxuwtyScKUCM9FZ/R8ixtAAGTFDYAntpmuLzmtbk3Ze/oPjXiJDiDmYXaq7kRaLfkXmMKWwL78z+UtrtkFYuf77wgZ2fOYoRGdz/OdOavDwoRZsC+F/KDKzl4ktuv3ZJmd/DcVqagTq4OXHENYFlqGwEo3DjnAO8Z3UvVDbVSkrmJebl0+JKkEqk6daYOY9ou2TL2BwLGFPqjH9qqRUDOqAcfSY/InSP3ZSa7W5bgpKracWTwIDVw8hCZAv/aSe2oZ2i2aLU1fYbSAzyfTGr11vSG7p1kq5vXlbjQBoO9esWgamAKDMlgqT0EiKCLdArSgcNKoizZRE7uzd+XqfyUjhQCj7kVz6P2yrZc/YGAMYX+6If2arFM7eiRCqPz2GG5fuxtyT/FalZYGJ0SQwLU0IPorl5JJMyWViGwigEo81qVxb6uiQAZbhXMYAnvXOKpJy/teUUW9r2g4Sw4wLAUbgSMKYSs/9xPDoQNB9lERl7de1VemDoHd0B40fCPM7GYkMUW5XFQtP7EuNeIWGt4mlxR+RODjrLH0LIV2ZGZkbsn35FCuqDvXJNb7FTIEDCmELIOW7YVgOhTrzuV3SZvz9+RCX8aAfOSUvLAGLhhOKdaGxC9QD202U0NnrsW4W0nT6f1JuNsVu7q81RzOPVRp0+Ib36nlnSqo+TTlFw9+rocnTyyrKo0j6PwvxvGFELWh4HyQwk+NeSYvDY3cUKu7r8uqadpEEPHFJiPYr6ltRGgfcZS+wgoXnz5lhIyO3ZEw1lkvLRJCe1D2Pc5jSn0fRfVVRD0izHrmfTHqVS/Cr/wnFw//KYcmzwq1XIZEgIjVWomzdvtD1ahfut2+b0vrwYidWwkcG0a5Htfr/55QsAsnTebqxdVR/Q8YlTZYqIot8/clpnBGf0e5O+fFlhNnhcBYwrPi9xW3FejXwEZo6ie8PAN/9OFablz7K4MyKiUsZSYp+oj5uxOIu3kdAjdwBIYvXV5C87X7ZXWdufRDaU0qoUC4t6QRb/w+as3XtAAguCYy26VFSxxCh25MQaFTT8cRsQW7xdADCROHlfxvpWwCuCr+y/KxT0XxU9g8SdgbSk6CBhTCGlfctTmCBl+qPijN9KL28/K6/vfkuRSEss6L6k3SEib18NqEy0QPPyTyHHmrXKPHj4xdEXXeC2ZgUoGsFEtM1MssblzcI+8deqWDKaHCCM83jhRzThD6Pq5RYWNKbQAJkyn+cOktqjgFeXO0fsyNzqP0RxcVPFjtrSCAHiAJmWnAI0qtqQHgsYJbEreVvLG+YgEnm7NnGegTguB8wKcFvKlvNw8eVMOwh3aSVjOPTrOeEWt7cYUItCjOkpTSleRmeK03J9/V6a8bZjSttRx6xrVMx3fHqobCJmvo1zQPxvpNvTdCh60IcDnCDqixBLCt+88I1dnX5Ms/pgop9Z4bcP99iW8CBhTCG/frao5RnU0MOPsC9tOy5tYvjO5hJADNgJuwInSgqo8cNaHlJBK+PDg4jmetRQg4JRsCox6uHmlpIxmJ+Tu6bsynh1DNhqdmZsiV3CX7aOAgDGFCPSikjPqx7FAOn+kea8g1w69KfOTJ6RSpjnYeZezqXEnfo6QgaBBZZROpqSQxaQrTmAzntDwS3A4ufclAbfnVCklV05ekePb58Uv+8oQnHLSOEIDcBH4YkwhAp3In6U6IakqhGvgimzLz8ijo49lApPbSlUu4AnGgAV0KU3wb7NTO2qpdvI01pstb77RSBps0H/A6AIE4EqZkDJUIUlZAmBZuFUO+UPQm9eKaSw8dt8C/KkuUj7JF4nvCwLendgxD3vVHcn5OYpYGtbIEQ9jClF7UYwpRKBHA7LomuJ+pBzdHZ+cR4jt25JbQohtDZoHwypGfGQQ/At/Clq+et+8ZdSTO/dK5oek4GWlkCQ2m88km9ewP84qmhAVNGQKln7dnt4hd87ekx0YaCgTrsHNnaXoIWBMIWJ9Goz2OIchnczIG/velPNTL2FdZ0xC9eCmCr/8+glJEWt+G82hLhxSE4bCWczELaRzqkpq48bYZHHvByQEBFjMlLPy9txtObXjxdi0P+4NNaYQsTeAzMCjmyX2FAYms5Py4ORD2V84qOs6L/mL4kuyq4whYETcb2bq+LlUlNfsLh7USQWoQjJYHMZJD5tZ8409q77d3TwOakWmiQjj8DYSWZh5Qd6cv6ESVSKYTh9ktH0kETCmEMlurTUKNJAqk4Njh+Te3HsyXB2TMkIe00qoTCPKbW/aNio8SO0oKSSkmCpIigySpy0tI6AT1kpl2ZnZK/fOvCcThUlcI8PfXKa/XCE72FQEjClsKtyb+zAO+DgxK4lQBBd3XpJrB26oF0mpioltsfyBU1KgZz0nXGGyXyoHluA8tsA7LdUQoPSRwd/Nk3fk5LaTilUFlhes0mEYxQCBZAzaGN8mktBRpYOh8EByQG7Be+Qvf/3n8se//teS8CEtwL5aotsSCGMKzINht4NRNEEjcQhSK8lCaelKtmXauiaN1VhDQcl1e1aoS4maotWJ0Zp07eAqTMskfKmseEuYpwCvLT65yS2ri9jQ93o86wvqlNR2r57ouNr7wRXpKDFp3CwYl8/tuiivHbsmuQQmqWF0oXUkqN17eD0EdtxHCHT6PvZR1a0q7SKgv2P8/qdz03Jv4b7s4hKenL+A4bKnbppVqJVogEXOZtR0nQex/NXbOrds2WVKSPCrAQH0JO1jPEybAkleHQPcsspt8oMZTVcj6qLPKVUSA2oXpwem5d2zDzBJbUQ7dsVXTd+kTa6lPW6zETCmsNmIb+bzdATPHzIOsGM8m7nxebl1+B5GgEVZ0lFiBSQRDqvUp+B6tD2TQPRICPHHBebzyazkKS14mIy1mf3SN8+ixYnzWpz7aaVSkYHqoLwDhnAEYdjpqVbFORcP1xhC33RbjytiTKHHAG9p8fwdUwLAjz4QAHKJglzZf1Ve3X1RvFIWa6UgEwiljp7xuRk//XqPmVb4tJOn1b2tzrOpLnRgAjGPfHjU5CULxuDhuFW76+ux0eNW9dqq81ygyaukdD5CySuJh5nKrx1/Xa4cuCZpLPWqMyIpRGkFWyG0VbW35/YKAWMKvUK2j8pVpsD6aG8nZDg9Iu8ee09Oji3A7RBEgZdUjUR1Qh9VvOtVIXmDnIAdrChwSc1ihm5GbQpxlBQScM+tltHhtC8tQoqEUfn2qXsynBzRAKg0/XCjNKFG5ki/G11/2UJboDGF0HZd+xVnJ7uOrhmS8TOfGdgnHy68K3tzO2QJi/KoblnZQ8TJo+rRnaSQhgop7afAFEjtIt7uJq8L1/Eup6A6hH1pBnam9899JLuH9uBdUIUS3hmqFsESwBmIjs38bgJiBE8ZU4hgpzY0qWF0575QGmD8n2Nj8/Jg7oGMyYQLj4yfPdbVwu1UJ4FMgjiQcGhqk2bWq1jcjZvzWf9cZzNmCxq3KoibV9OTF3zMUaimEeoiCWMz4vnA+4qznJ/Znilldakb/95rhFybnFGZ/UlfIrUkwdusDE+sQqkgd1+8K6emFyRZrZ+3EeAXtJHfLUUdAWMKUe/hhva5H7l+YsSclpy8vOuqvHnwbcks5mBfoMRAVRLUCdA3030THypF6CzXhrL6/Ytra0DOuHdGdIx6weAKmLiWhudR2meoi4GWzkfPllJfYneOe40k2+08rIiBcyagX0ECfZtYSsilQ5fl9SPXEPbDuZ+6+pA0sPUrO0oNlqKPgDGF6Pdx0xYyWihVRgP+oLx9+La8vPOiVEu+jiAr0LhXGHGVBATMgYHR6IES+qRGd7QCBDEHewIn9fnJpOQzIIZOvAh9E5s1oIJ2qyKIUgAZPfuSA4AnZTkyflTun35HRiDhI/wAACF3SURBVDNcI4HSoe7sI8YIGFOIaedz5EhiQa3QVGZK3pl/Rw4Xj0oZ8W5KHl1Ul1R1RH2yx1W3kC9Q0YQVMraV3lg0mhb8vC4ew4V28lhXgWG1I5vA1J13GVg7VUbYSrAjbccqfY9f+kQOjBxQKUqjohIiDAQsxRcB6/3Y9j3cMEHp+fsnkdw/dEg+OvGRzGR2QmJAhEwwhgpnMoGcuMiqUXhVoApDM8gWBtMFNaB6sCmkMU8h2onskLYE2oggIYABFjAf4cH5R3J65ozaEXQiGyUIlzXacFjr1kQgCr/0NRtoF1shwNnMtB84lYEPv/RT28/I/RP3ZawyCkZAKYJqBtoUnETRqqQwndf1hqEjGcoVoSRLoo2QFNKY1UwOGdGkcgLUgVQNUdpLl9Jyc/62XD3wumTgkqu2BbSdUiFFwgpfCkuxRcCYQly7XmkgDY8AoHacRSjpV3ddlttHb0nuSRajao4sS7hMaqKZnkGLtyuxqWVp57i+kEAlxX2r1E6eVvfWn6cBHVRRVSWFZBHsgIwxIWP5UdW5O3UaMXEbctbf3vfH4ONoh+sIMjvtG7YRDIGJzfefpuT8noty79R9zEcY5lnXtWAIaozWfK37guVYijYCxhSi3b9rtA4UAv+gHcFOD4ZTo1it7W15dc8V8b7n6JK6dmbk1jw54kPy0t7WvJTenw1agNkJkoVLahWqFM5lHk4Poe66UKfu2VbnqRTc0fu6deMJxD/oKcp27js+a/NQ6G18eOyIPDzzSLYVtrOVkBJqzICUADfzHNWJluKLgPV+fPu+actJVEZz2+TB/PtybvysVDHTteTD+kxVUsgTR8pMLuZRXkfIjO1TTFNqIDl0o2nmYV6VovglJMmDFLQyM52qP9dnnJsAviDjqSl59PIjOTwxqw1spSaqwRSSVls1u42AMYVuIxr28kgNoUrYObBHPlj4ACu2HZJyuYQFyzCxjbaFNdQ8YWg6TQeMjFpIZzFfDQZ1VHogU8A5yAyYwMbkPvUwVB9KzMkAwAyUEaCx6l4MV9RiYkgeXXhPzsychSUlre2KjqUoVN3U95U1ptD3XbTJFQRT4EQ1hn44NH5cHp56JFPJHfBIgqwAIhrop9upVbdsAe08a3WeZs+mQqUKwo8pawj4lloO20CmUMzk1OjOpUwDiSJsI2baEZxRGSEp0IdUDXlgCNnFPGIa3ZZrs1cl7xXU4wwdCUnIfv6r3xv7rhplg8EQWEGABJHOJwyNkEqk5fz2c/Jo7rEMyIiGRKD3TngTRtFQFw2CCSQZDA6Ek+6ZVCflEAOJoS54PbwtJJHnRjdi2AYwGTHxVOT1w5exHOtdRIVFoDu9yhyWDIHmCNhQoTkusT2ro2R+1NwT85jkdWXPVbm1cFcyFcz8Bceg2mFllNmahJLwNNtag9ssN891J2mzUN2h7DAYHhcdhHoFxWfhljmQKqrahcojZ13gM4O2tarXFp1ntZptqA4nntG1lIby6tOynN6zIA/OvSOTuSkwQTBC/OIpT2jrWH1LhsAqBIwprAIk7l/1heCHLtNJquGBYA7Inb135OahO5LC8pVVBFGjDTNBitpCcuCdGIg33VpirFSbZa7aWt7Q2QVKBfiXAW9QkgiMx1AeVbQzBRvDjvy0YA43Hg0FTE2top5XPF5dny3+XsXzm22U4qpUf4GtLS2VZd/YPvn4wqeye3C/JHAeEbJVjuCn9k9n8FnumCBgTCEmHf38zST5EBlJjcm9o+9AanhdKotJ6KUXQTyppQ/XbGBEO5JitogWKedT5uZDahjODTtGp82tlxC0+aH48BmnCn9LSxXZlZ+RT195LLMTx3SSHhvgejIUTbFKbiECxhS2EPwwPZrqiKnMdnlw/H05vf0sGANj6MD6THEgJEnXZfbSMgimQIM5bSfuB1CViYExVSmxOc4nCQeUCEKUuHpaBb6nU+lJ+fjip3J25mUwBNhKwtWMECEezaoaU4hmv/agVVRKwFW1uEceL3yESVDzCJ7n/F269bBmHkOry24nz+p76r/7MDAXYWimGontoZxDDdhYEUyhSmMzL+AE0optQb8+10d9fbt1XF8RlhkkBrkbqBTk4bl35dV9V7DUaN61JUSMO2iL7bcOAWMKW4d9+J6MEaePv4PDR+QHp7+UQ4NHYMwEUQrJSFTdUWE/yGINBYgDmigtkLAOZQelkMGENjIFKMUCttDvncS5I/SYorvwYHlA3jn9QN44ckPyNJyzJSHpm37HOU71M6YQp97eUFvp1w5iCUNsEiPq46Pz8vHZT2RmeI+US5guC+LjSKkjp+5zQw/s+s2cm5ZL5xE2O6d8jANo0kwygsEMnG6LcNlEG+ld5VKw73pVNlgg6+iSroyHL1wb4s6Jm3L75H0ZSA9rCzh1zf3Ag9wbfKzdHgsEjCnEopu70EjSFYxKqXLhfxpzGE6NnZEfLHwhO7MzUoFxk+G2E84tSWfU1j+1XnVSf34zjoNn01YwmByAimUAbeFEPNpF6JaakAHMVZjKjguWK4atgcyAXjxOagjqGJTTyT64t5t7MmbWkfVbwroXDEVy7cB1ee/0IxnPjqFdTvGlfbXMPrpZAysryggYU4hy7/a4bRks33h66qw8OvlYJnys80zGQI4BnQVj8PRdAsUfQJyjFI2vqCZJp465wfDo279taAqnOX+BUg9Snw6wuc50GfXngjnJJ0m5tP8VeXTuQxnNT2ib+rTaRNRSCBAwphCCTurHKnK0zJRJ5OTi9GV5dOpDGZdtGniNEkMwQaqf6s7on2P5EWEoC85bZgtIQPUIjGxmeLtkqmnHEPQsr/YfieVM7BKMIdWnPtbYflk+e+UzmRnYCfVe/9W1n/rf6tIeAsYU2sPJcq1CIFiUhpE2s15Oruy6hjhJH8gAAq9VMSKn+2c/JTIA+vGPpIbUwwiKI2UOOvsX1xhFdMfANil6+VqgPChnQGTrVUX90R4wgyRY2vdVBLc7J59f+lJ2D++DyohhO/qjhlaLcCPQX7/ccGMZy9pTr01jZ8EfkNf3XJP35x7KSGkMRLbfXi3EcsLSm4M+5iiAQ7j1iF3AbEoKVczOHkf4i/HBMaxfzJnNyKQzm/uL0uoqeFjn4vT20/Llq1/K3tH96hGm9a3JOLF8Ea3RXUOg3365XWuYFbQ5CHCkzVF4CSu0DfiDcmPfTbl78l0YouESqXYFXt36RMKfTeegd4eHEdyQEhrGA/XS6sG6AMkmB6+kqZHJWr23vs6NNXA4lhZLcnTyuHx+5XM5OHJQOO+iTL4FMcGZlxvvsm+GQKcIGFPoFDHL34AA1Ug+ZwdjwyEicQ7Kzf135MPZx5LFus8VqJJoY3Ax/p1xlCGTmm31BbejtmmVR2MaKbXHIvWwIyRANcvw2MlVczLGaK8QFbxKUuvL2EecwuYhnhNXbN4zOCOZJSxFij/ew/1WJD5VhS0yXeLlA0cwhGPjx+Sbi9/KYex9qIxQebV6BDxuK+pqz4wWAsYUotWfW9IaDlRpxCXxIhEdhN7++uybCKB3T4pw/yyXobBnHs3Q+1duhYyjNpx3AIpJ9RAlgQxcaXmd9dXEyoOsVuHJQ0PtnsndOvGrXAbjqLl2uoyb+6mYos70MNIFc74XOTG1IF9f/aEc23FcVUaBtNN7RDe37fa0rUXA3qetxT9ST1cFBgipzq5NDcr9ww/l1nFMpioPYrQO6wNG3jV9TU/bTUfT2vhZCTuH0h6khfHCqPg+5AH1nFJuoPXgEWzQMJDD2Dw4IVMD4yhB2RykiZV8Pa1008Kx4h3WkZanCZmfOgWV0dcyPzGvE9UomXEmsyVDoNsIGFPoNqIxL49ElC6f1M2MpEfl1uG7cnfuXSlUYWOogMjBMN3rRBuxS2BTtUleVCGNZYZRN5xD3RxjYDWhXqLuBf9kBEPJIdk3uQdMDN+3kOiqAT9JhlCVucl5+eLql3IMtoQUVo1TRoX6Ks5BU21vCHQJAWMKXQLSimlEQFc1g2TAkNu3Dt2VO8cfyFBlSIltY87efKPUQiIP6o99WdKIjjqeGyPlfyZRFmDuMtZpTmKewsHxPVhQyOnrA+bxzE09PwFm9cSX+fGT8uXlL2QOS6OmsISorvHAClsyBHqEgDGFHgEb92LVfgAvHxKx4dSo3D50X+7AKykD43OZkwJ6mJz6iMyArAF8AG95EkbZkRzmUDThCsxDN9UyVUWlhOyd2CWjiIPEqKPN8vew6lo0n1leKsk83E6/vvZDOQ5JIaXzEBBGxCzKvYY/9uUbU4j9K9ArAKBGomqm9jeUGpa399+Vx0e+kKLkYXxeBLHGBDIuH6mroK1BfknVm21K8pvUX/OCNcBNll5OVRi6C2BGoz6YAq5RZUTVC9UwCeqayBUgVSSqJV2HenthSo6O7tNj2sZ7mShRldXIjclnqIN6PD2tyJndZ+T3X/uxHJk4qvMrXCVZmR5XqJeNtbJDgYAxhVB0UwgrqfSLTAGvGI6ptRkGY3hr9pa8f+IDGSsj+BxGw2WfzKEqyTJcRLtG8BzhVIkBDICcYRAxj4rJYp2ReTVxZU0hGUCySUOFNDczCxWSc1vtJfpc+tMrp9RNtgwmKU9FXjnwinx7+YeyHxPTqDIC59JNsexlZaxsQwAIGFOw12DTECDRz6fycmPvXXn04icy5e1QFU0ZkT5JolcMxBuskhYE5RE4kcofGO6P5kYl7WdQMNnTs2nlLEbumFuxb3ofVppDkL9Sjw3jqJtjR86o/Oqhy7AhfCP7ipiYhj9LhsBmI2BMYbMRj+Hz6o21JP5Fb1Cu7n1DPj7zmez29kpiSWQx+aTmsvosQLw/2J696s4E190ehBwP8jDbl8S+illgU4ggmqyNup3aCMRY1UfKjpALI/baIT1WJ/KTsjBzAjYGXMJ55u1WYh312SiYKrSS91Qyi2m4796Wry99q6vbcd1oPteSIbDZCBhT2GzEY/i8FeKLxoPQVbGWcMEryCvTV+STF76Q3el9Ui2tjNU3DhFnIiOBKXDilwc3Tq4z4K+Kx9RI6F24Dur4fcRIypaz0OufkkyS0gU0UF10T6U9g4xBsYAxPrOUknexYtoPzn8uO/LTZE9Qq/XWGK+Nsg9DoAkCxhSagGKneocAaSGpIYlvFn9nZy7IJ2e/kNnCMZ35vIa5uf1KUW8EtsAZyiwvncrA82gU6+q0ft3pqeQSZgiAUHuYMHZgbJ/MTE/LUgnqrS5KCnwO67UIY3sWa1I8Pv2xvPfC+zKeGUctuOgP6966rrWK2s4Q6AkC9ub1BFYrtBUCTm0CXTlVN9hxoZ4Xpk7LN2d/T46NHBNv0cUpYpA39caBZw4ZiA6rtVCOsLlR18/zTRIIKu+l0RgkFuqqHCbSDWruQGpp3EN5hLz0lqIrLWqAe+GxBBvE5X0XJFtBLCQ8s4Ipz1ylzdWn+bOVmKuEghnHDFHBuE9sA0plvCXGWYJ5XUpLS7IjuV2+uviV3D/1noxkwLSov4LRneyJJnpLhsBWIGBMYStQj/szQe9IevUTO46Wj4wek8/OfCnzYyclAcaghJSTB+A51Oh1Q2JcvzUDk/fwIWAcCK8xlh2UARi4q2usBkfm4Z6ETzAAMhTOaD6/bQFRSQ+qFOOhPj7tAc0eWTtHhqHhrUH8E2AOZDKMJEuXWrAH9TIStG//4CH59urvyVuHb8pAdsBJIsjGtrq6r/EQu2QI9BABYwo9BNeKbh8BGoGPDJ6QT899JRdmLkoSq4pVMHmMo3cM0dsvqJaTwgTosTKVycKEZNTzaC1y3uQRYACj3ohcmr0g6VJa2YbPOq1RH7qVUjpAUFPYMMAUahsZVDm5JOXvy3JiYkF+fO3vyIW9L0sWQfosGQL9hIAxhX7qjZjXJYnIPgcGDslnp7+UGwdvSXYRs58TT3Ueg4MGqhtnlFgXKcY8otImCaK8vTAJmuxWJqtXGy17AVGVVbMZNFynqghzCF6cPiGnpudlEbOdyz7NwBzLt2YwHp5NIYdSAyemlX26MCE0N9ZTfu3Aa/KjN34sJ3YsgCHkVZ20bmMsgyGwiQgYU9hEsO1RayPAUbYHV8wd6Z3y8PgHcnf+vhTLA1Dj4D6lwR1IDCTKIM5pMJqp3ITq82nH6DSVoOcfTg7LzZPXZTI9IUtQZ5XJmFpUhTYFZyQu03IApgbJATOq8+W83Ft4R766/LUcHMMcBJSrEVA7r1KnTbD8hkBHCBhT6Aguy9xLBKiDpxGZo/Dx9KTcmX1XPl34RoaziENUxWQGpHYjg1J9pCG8c4MygfspKQTSQLttANnGiL8sS/AOPTw5K28fuwyvJJElShBr/nLAxcAMErowjsi4NyWfXPqBfHjuI9k+sAN2CWfQVk5nTKHd7rB8m4QAZshYMgT6AwGncsEgHCoXTjwbSY5i3efrkhnMyD/89z+Rv/jtf5MKVPA0xnJJTUoPjqbyk+IEiTg9j1gGDL7IM1mcRDhsLPRDyr6cv1l7WcbK5lgTV5WDCgibt+TJlcMvy3//zV/Jv/jlv5VKBhIByudCPEx0MeWnVgPPplG5+sTDSmlH5eGFh3J21xkpYo0JzcB6kAHyDh7rkX0YAv2BgDGF/ugHqwURwOjbaespMbjjXDInl8avyI5z0/L3/sPflZ//zX+UahoMAG8u5xPQydODSocePyS4bv2EBGYJl1SNM53bgVhGWBaU35kXhuvAbsBHBtID2BC/rGy4VkVeDaAHtRbrM+KNyYOz9+U33/0f+c9//QvxMrRToFQyB/CDkhYBPyZ4PPkwTJ/edVY+evmxzI4jjpKHGEYshKEruOO2snNf7NMQ6AME1hSC+6B+VgVDYNll9fNz38ql3VfFX0QAOejp1TMJQ20SZpUeMPGBhl1KGqDTsCdkEDJim16rQIdPE3GnCfwG5VMKANvArOtpxEP69NJDrIR2SKqLsBuAYZS9RRB57jEHAXGThvD3/un34WH0I0Q5nUVQO672VuMCnVbA8hsCm4wABla0mlkyBPoYgdobStPtXz/93/IHf/ZP5J//4g/ku8TfSiJJqs1xPgg+VUdw/aQtABp9Ga2Myu+f/FS2YZIYtD8IXYEJZcgeSArBni1nCcH3QHrQ8Noc2YPwJyAK+Iyaiu/VZFV++fQv5Sd/9FP5N7/8d1LOwgXVT0npCeYfDO2Vjy48kpfgblpIDYBxoVoonywJH5YMgb5HwJhC33eRVVBV9TTc4o+eSN+V/q/87K/+UP7xz/+B/K8n/1MqIMqg6lg1DSuTMQ/nBODUfP6IfHXskaQqWL8BRt8UjM1KmylZ1LYA3SqkjOBcPVPQxYJI2HErbyZT8KpgDqmK/AoM6md/9i/ln/3pz+RvfvtbeWn2jDw881BmJ45LNpF1RWsMI0ooxhEcIPbZ7wgYU+j3HrL66VCb7puceUAvIhLY7yu/kz/925/LT//kJ/KffvMnUoGdwQexZlribORFT27vuiq3p9+U6hIYBYgzbQQcua8m/rynFVPgTGeGpkioaoo5MebHcQpcIgE7xffJ38kvfvUX8qtffyfnj5yXqew2SWLpzwrroCyED+R9lgyBcCBghuZw9FPsa0lvHRJz6vA5Ws9LQU6OvChjF0blp//l78sf/fm/ku/pL+qDdYAgZzGDec/oLq6xqUQ5MAR3CqSaAvDBuQcexBSGwOCe8xcSiHaarhRkYfKkpKaHJJ3MgmGAjdC+gHxY8VklGH2m2iWMO3SKv+XffAQo11oyBPobAdJSpaccs6u/kaqBkvDo2V04IJ+f/EYeL3wmY/6klDB5mFayGYzYd+emcczV3bCBiDNuEVOgHgrMafWSQ3At2HOpUD6cKikqj2i70OrgO05iy0g+Oyq5TB52BVzDc2gAT6Km+uNa1hxpA/T59mEI9DMCxhT6uXesbk0QqCOuGH1zveVBzDS+vveG/Pjcj2Ru6IQkv0vL7OhByftYfhOj+TJG70xuBkOTItc8Vfe8IB9OkT3QoyiXy0sySXfT+kTrR5P76rPYsSHQpwiY+qhPO8aqtT4C0NKoBMEZxmkwgFNT52U4NyT/9I//kcxh0phXSiIkBUb0JNBKo2tuTOsXvW4OCh3JZFrSaQa0MwawLmCWITQImKE5NF1lFV2NQOBMTRuCG5nTO+mJ/Nf/8XMsjPNEipUidP+4BmkBMwWwp8oHah18D1KgOqo3NPNacJ4zpIPj+n0Vqqt8HnYEhORWXZYWGDAdYxIKh32EEoGVX0coq2+VjjMCuhAP6C/DVDNGERfH8b2MTAzMSK6cVk8jRif1Vfe/okbqBmYpLNOZgmG5UUoImEI3nmBlGAJbg4Axha3B3Z7aBQQwfxmafXAE2BW4kSnQ3adYGFRPIEYp9dRbiMQaUoR+bvzBlBjS6SwkCGeE3niJVoIh0D8IGFPon76wmnSIAF1TVXWj2hq+yjT4Yg5BKiepXFFZBBkBJ64xQJ7P/DWjc70qaK1jGqqhQcKGeQ4oo0LPonQRz6DaaLWaiHVYfQ6nLBkCIULAmEKIOsuquh4CAUH2JF/AOgxUGwVEWucJrHf/GtfBTMg8WB4NzMvlrnGLXTIEwoiAMYUw9prVeV0E0qmsJH2Eo1CjcsAs1r2tdQYwGCzZjDKxbE8q0zqfXTEEQo6AMYWQd6BVvxkC0PlDhZTO5OCNRL+kmgcRPZBqI37uNeCdjv5dGU4SaCyPl4N7VEoAQ0hgPWmTFBpxsm/RQcCYQnT60lpSh0ACLqOFfBFnNiol0CrBjQn2BERD3XiZWph9GAJ9iYAxhb7sFqvUxhFISCab15ATwXyGjZRJ+4TvI8gGZy/X84mNFGr3GgJ9iIDNaO7DTrEqdQeBVKoAIp6Rcul3mMfA8Q/WQqCNwemE3L72qBUVkTux8t1JGnQ/5RwIj6qjZaP1RqWQ7rTTSjEEuomASQrdRNPK6isEfC8pWQSqo9qHloVmNoNOKuyhPHWB7eQmy2sIhAwBYwoh6zCrbicI+JIBU9B1mSEhbIwpwBUV6iM1UQQmhk6qYnkNgZAgYOqjkHSUVfP5EHDuoxz7VPWPUVVXVEPUIDVKEMH3YE8uEITY9pP2c3m+XrC7woSASQph6i2ra8cIJOFCmsSCO87Y/HxDfDIIj+sk6JyHjqtgNxgCoULAmEKoussq2xEC4AFciCedySpToF2h00Q24pgCQ2pYMgSij4Axhej3cXxbSB4AryENb63eR41QkNgzOfWQZsa3xr2aqHEvg28nEjX1kd7n7tUC7MMQiBACxhQi1JnWlOYIpFIIo+25NZ6b5+DZRmYQfHdn+cn7TVpojZ9diQoCxhSi0pPWjpYIpFIpVQG1zGAXDAFDYBkBYwrLUNhBVBFIwJWUqqIKItpx385GLGraJcgQjIxqnkdRfT+sXY0IGFNoxMO+RRABeg1peIo1zAD1jKIeAp6nZokhLiwZAnFAwJhCHHo5zm1UX1SM9FM0FK/BFZpiBDdUShb4496SIRAHBEwmjkMvx7mNSsw98XU95f8H4k61kFMhEZZmjCI4p3vkJ19pXJchmO9gjCLOr1ZU226SQlR71tpVhwDUR1hfQTBngWR89baWFBDMZraYR3Vw2mGkETBJIdLda40LEKBNwI3rdTpacHrdvUoVmKVgyRCICwL2tselp2PeTh9Lc64OUxGoidaCRi0KdeqmtfLaNUMgCggYU4hCL1ob1kWADMExBWdPUAmgjtg3+85CqT4Kri0vwLbu0yyDIRBeBIwphLfvrOYdIEDVke/zdQ+MxB3cbFkNgRghYEwhRp0d76bCA8lPAwKEwtaN7KFmclYPpeboVHGNmzNPN89jZw2BKCFghuYo9aa1ZQ0EfKiPEC1V4xdxjQT4E5HYY1P1EO5cVhPVHVex/kKlxhjIGlxaOQrO2N4QiAoCJilEpSetHesi4CMoniVDwBBYGwFjCmvjY1cjhMBq76OOmmamiI7gsszhRcDUR+HtO6t5hwjUB7UjgwjURdwzBd/rj92sBrckZy2b5rUPQyCqCJikENWetXY9gwCJvk5i64C6K6NAbIwObnnmuXbCEAgTAsYUwtRbVtcNIcCJaFxsp5O0Ij2YcbkT3CxveBEw9VF4+85q3iECnp+Cx1EGHkgVuKNWwCD4+pPY15RE8DRiChgB95y85iaw6SX7MAQij4BJCpHvYmtgPQKUFIzI1yNix4ZAIwLGFBrxsG8RR8CDfUDlAjMSRLynrXnPi4Cpj54XObsvlAgEXkerKx+ojHg+OA72Xk2ttPoe+24IRBEBkxSi2KvWppYIrDAFm3jQEiS7EGsEjCnEuvvj1nh6H9krH7det/Z2hoCpjzrDy3KHHIFEIoUWwOMowZDYK9ICVUVMgcoo2DMr/I/0mn0YAnFAwIZNcehla6MhYAgYAm0iYEyhTaAsmyFgCBgCcUDA1Edx6GVr4zICtClwo0qI8xWcjaH1amyqaTL31WX87CD6CJikEP0+thbWIcBQF2ovILVfNwWzme1nsi5UliEyCJikEJmutIa0hQBtzDrydwvtrH0PGQhycEUeS4ZATBAwphCTjrZmOgQ8XXmNI3+qkRgcz0kBgbdRsGduHpMduOU73eKdPG/JEIgyAiYXR7l3rW1NEAjURtwHx02y2SlDIKYIGFOIacdbsw0BQ8AQaIaAqY+aoWLnoosAhIPAphDs2dhAbeTOBXlq55mBdgUTLIiEpYgjYEwh4h1szXsWAXogGYF/Fhc7YwgQAVMf2XtgCBgChoAhsIyASQrLUNhBHBGoVxcFKiTiEBzrvAaKFaY+iuPrEcs2m6QQy26Pe6M5KW0Fg4AxrJxZOeIPxH4kK3jYUfQRsPc9+n1sLWxAICF+Mok5CmY1boDFvhgCNQRMfWSvQswQcKErKhAVPExOW1YT1R0TkOC8WqTrpIqYgWXNjSECJinEsNNj32Qj8rF/BQyA1ggYU2iNjV2JLALkCsYZItu91rANIWDqow3BZzeHDwGqjNKodtkZm4MpC1Ue0M7AbYVh6BFP1aIguev8bskQiCYCCcSUX/kFRLON1ipDoAGBSqUs5fKilCqLUq2UpFItY3VOrt+s1F95A/lDAt8ZBi+R8CTpZ2CDIDNBED3+YlzWhnLtiyEQBQRMUohCL1ob2kcABJ3RUT0vIylJQ1qogCmAMZTLQmZRqVRQVm2c1ED8+YUbroNJWDIEooqAMYWo9qy1ax0ESNghB4DA+win7XuO6FfBGEqlJb3GAqpSwmdt7YVEjSmomGCiAvGxFD0ETH0UvT61Fj0PAoEWVQk/iD8lCEgNFTAFMg4yBt9L6d7pjowpPA/Mdk//I2BMof/7yGrYNQScNOCKW6UC4qXlxC80KtSpklQ6WHXPcn47MASig4Cpj6LTl9aSjhAIuMCzI/5qBcZlqpOqYALPXu7oKZbZEAgbAiYphK3HrL6GgCFgCPQQAZOHewiuFW0IGAKGQNgQ+P8hIMX5lIKqpwAAAABJRU5ErkJggg==;" vertex="1" parent="1">
          <mxGeometry x="571.91" y="342.5" width="26.18" height="35" as="geometry" />
        </mxCell>
      </root>
    </mxGraphModel>
  </diagram>
</mxfile>
